<?xml version="1.0" encoding="utf-8"?>
<!-- Generator: Adobe Illustrator 21.0.0, SVG Export Plug-In . SVG Version: 6.00 Build 0)  -->
<svg version="1.1" id="Layer_1" xmlns="http://www.w3.org/2000/svg" xmlns:xlink="http://www.w3.org/1999/xlink" x="0px" y="0px"
	 viewBox="0 0 646 349.3" style="enable-background:new 0 0 646 349.3;" xml:space="preserve">
<style type="text/css">
	.st0{fill:#FFFFFF;}
</style>
<g>
	<g>
		<path class="st0" d="M14.3,67.6c0,1.1,0,1.9-0.1,2.3c-0.1,0.4-0.5,1.1-1.3,2.2l-7.7,8.8l-1.4,0.7V80c0-0.5,0-1.1,0.1-1.9
			c0-0.8,0.2-1.4,0.4-1.7l10-11.2V67.6z M14.3,75.6V80l-10,11.2v-4.6L14.3,75.6z M14.9,84.3c0.1,0.2,0.2,0.7,0.3,1.5
			c0.1,0.8,0.2,1.3,0.2,1.5v0.5v0.2L5.2,100v-4.3L14.9,84.3z M15.4,54.2c0,0.3-0.1,1-0.2,2c-0.1,1-0.2,1.6-0.3,1.8
			c-0.1,0.2-0.3,0.7-0.5,1.4c-0.1,0.3-0.2,0.6-0.2,0.9l-8.6,9.6V69c0-0.7,0.1-1.6,0.3-2.7c0.2-1.1,0.6-1.9,1.1-2.5L15.4,54.2z
			 M6.3,104.5l9.8-11h0.6v3.4l-9.7,11c-0.4-0.5-0.6-0.9-0.7-1.2c-0.1-0.3-0.1-0.8-0.1-1.4V104.5z M7.6,112.6l9.7-11.2h0.5h0.3
			c0,0.1,0.1,0.5,0.2,1c0.2,0.6,0.3,1,0.4,1.2v0.3v0.5l-0.3,0.7l-0.3,0.7l-8.5,9.6l-1.4,0.7c-0.4-1-0.6-2.1-0.6-3.1V112.6z
			 M9.6,120.5l10.3-11.7l0.8,3.8l-10.4,11.7c-0.3-0.5-0.5-0.9-0.5-1.3c-0.1-0.4-0.1-0.8-0.1-1.3V120.5z M19.3,40.3
			c0,0.2-0.1,0.6-0.2,1.1c-0.2,0.5-0.3,0.9-0.4,1.1c-0.2,0.5-0.5,1.2-0.8,2.2c-0.3,1-0.5,1.5-0.6,1.6l-7.1,7.9
			c1.4-2.6,2.8-5.1,4.1-7.5C15.6,44.4,17.3,42.2,19.3,40.3z M11.6,128l9.7-11l0.3-0.2c0.5,0,0.8,0.3,0.9,0.9
			c0.1,0.6,0.2,1.1,0.2,1.5v0.5l-10.4,11.7c-0.4-0.9-0.6-1.9-0.6-3.1V128z M24.6,123.6c0.8,0.5,1.2,1.2,1.2,2.2v0.7l-9.7,11
			l-0.3,0.2l-0.5-0.2l-0.3-0.3c-0.1-0.1-0.2-0.2-0.2-0.3c-0.2-0.2-0.4-0.5-0.6-0.9c-0.2-0.3-0.2-0.6,0-0.7L24.6,123.6z M16.7,66.3
			c0-3.3,0.4-6.5,1.1-9.4c0.7-2.9,1.5-6,2.3-9.2c0.3-1.5,0.7-2.9,1.3-4.1c0.6-1.3,1.2-2.6,1.9-4.1c0.1-0.2,0.3-0.7,0.7-1.4
			c0.4-0.7,0.7-1.4,1.1-2.2c0.4-0.8,0.8-1.5,1.1-2.2c0.4-0.7,0.6-1.1,0.8-1.4c1.2-1.9,2.7-3.9,4.4-5.9c1.7-1.9,3.3-3.7,4.7-5.2
			c3.2-3.4,6.5-6,9.8-7.7c3.3-1.7,6.9-3.6,11-5.5c4.3-2.1,8.3-3.4,12-3.9c3.7-0.5,7.9-0.8,12.6-0.8c0.7,0,1.6,0,2.7,0.1
			c1.1,0.1,2.2,0.1,3.3,0.1c1.1,0,2.1,0,3,0.1c0.9,0.1,1.3,0.1,1.4,0.1c1.3,0,2.6,0.1,3.9,0.4c1.3,0.3,2.6,0.5,3.8,0.8
			c0.7,0.2,1.7,0.4,3.1,0.5c1.4,0.1,2.4,0.5,3.3,1c0.3,0.1,0.8,0.4,1.5,0.9c0.7,0.5,1.5,1,2.3,1.5c0.9,0.6,1.7,1.1,2.4,1.6
			c0.8,0.5,1.3,0.9,1.7,1.1c0.5,0.3,0.7,0.7,0.7,1c-0.1,0.3-0.1,0.9-0.1,1.5v1.7c0,0.2-0.1,0.5-0.2,0.9c-0.2,0.3-0.3,0.6-0.4,0.7
			c-0.2,0.2-0.5,0.7-1,1.3c-0.5,0.6-0.9,1.3-1.4,2.1c-0.5,0.7-1,1.5-1.4,2.2c-0.5,0.7-0.7,1.1-0.8,1.2c-0.4,0.7-0.9,1.5-1.4,2.5
			c-0.6,1-1.2,2-1.8,2.9c-0.7,1-1.4,1.8-2.1,2.5c-0.8,0.7-1.6,1-2.5,1c-2.8,0-5.6-0.4-8.5-1.2c-2.8-0.8-5.7-1.2-8.6-1.2h-3.5
			c-0.2,0-0.8,0.1-1.7,0.3c-0.9,0.2-1.5,0.4-1.7,0.5c-3.2,0.6-6.4,1.3-9.5,2.2c-3.1,0.9-5.9,2.6-8.5,5.1c-2.1,2-4,4-5.5,6.3
			c-1.6,2.2-3.2,4.6-4.9,7c-1,1.5-1.8,3.2-2.3,5.1c-0.5,1.9-0.9,3.6-1.1,5.2c0,0.2,0,0.6,0.1,1.2c0.1,0.6,0.1,1.2,0.1,1.8
			c0,0.6,0,1.3,0,1.9c0,0.6-0.1,1-0.2,1.1c0,0.1-0.1,0.4-0.2,0.8c-0.1,0.4-0.3,0.7-0.5,0.8v6.2c0,8.1,1.3,15.1,3.9,21
			c2.6,5.9,6.5,11.5,11.7,16.9c1.6,1.6,3.4,2.9,5.4,3.9c2,1,4,1.7,6.1,2.2c2.1,0.5,4.2,0.9,6.4,1c2.2,0.2,4.3,0.3,6.3,0.3h6.5
			c0.9-0.2,2-0.6,3.3-1c1.3-0.5,2.3-0.8,3.1-1c0.1-0.1,0.4-0.3,1-0.6c0.6-0.3,1.1-0.6,1.7-0.9c0.6-0.3,1.1-0.7,1.6-0.9
			c0.5-0.3,0.9-0.5,1.1-0.6c0.1,0,0.4-0.1,0.9-0.3c0.5-0.2,0.9-0.3,1.1-0.3h0.2c0.9,0,1.7,0.3,2.5,0.9c0.8,0.6,1.5,1.3,2.1,2.2
			c0.7,0.9,1.2,1.8,1.7,2.7c0.5,0.9,0.9,1.7,1.2,2.4c0.2,0.5,0.6,1.3,1.1,2.4c0.6,1.1,1.1,2.4,1.7,3.8c0.6,1.4,1.2,2.7,1.7,3.9
			c0.6,1.2,0.9,2,1.1,2.5v1.4c0,1.4-0.4,2.2-1.1,2.6c-0.7,0.3-1.6,0.9-2.7,1.7c-0.1,0.1-0.4,0.3-0.8,0.6c-0.4,0.3-0.8,0.6-1.2,0.9
			c-0.4,0.3-0.8,0.7-1.2,0.9c-0.4,0.3-0.7,0.5-0.8,0.6c-1.5,1-3.2,1.8-5.1,2.4c-1.9,0.6-3.7,1-5.4,1.2c-0.7,0.1-1.8,0.3-3.2,0.4
			c-1.4,0.2-2.9,0.3-4.4,0.5c-1.5,0.2-2.9,0.3-4.2,0.4c-1.3,0.1-2,0.2-2.3,0.2h-5.9h-6.5c-0.5,0-1.3,0-2.3-0.1
			c-1.1-0.1-2.2-0.1-3.3-0.3c-1.2-0.1-2.2-0.2-3.3-0.3c-1-0.1-1.7-0.1-2.1-0.1c-1.2-0.2-2.5-0.6-4-1.2c-1.5-0.6-2.7-1.2-3.9-1.9
			c-2.5-1.3-4.9-2.5-7-3.7c-2.2-1.2-4.3-2.6-6.4-4.2c-0.2-0.2-0.7-0.7-1.5-1.4c-0.4-0.3-0.8-0.6-1.1-0.9c-0.2-0.2-0.6-0.7-1.1-1.3
			c-0.6-0.6-1.1-1.3-1.7-2c-0.6-0.7-1.2-1.4-1.7-2.1c-0.6-0.7-0.9-1.2-1.1-1.5c-2.3-2.5-4.3-5.3-6.1-8.3c-1.7-3-3-6.3-3.8-9.9
			c-0.3-1.4-0.7-3.4-1.3-5.9c-0.6-2.6-1.1-5.2-1.6-7.8c-0.5-2.6-1-5-1.4-7.2c-0.5-2.2-0.7-3.6-0.8-4.1c-0.5-3.2-0.9-6.5-1.1-9.7
			C16.8,72.9,16.7,69.6,16.7,66.3z M18.1,140.6l10.3-11.9c0.6,0.2,1,0.6,1.1,1c0.2,0.5,0.2,1,0.2,1.5v1l-9.7,11
			c-0.2-0.1-0.5-0.4-1-0.9c-0.5-0.5-0.8-0.9-1-1.1c-0.1,0-0.2-0.1-0.2-0.2v-0.3L18.1,140.6z M33.1,133.9c0.9,0.6,1.4,1.3,1.4,2.2
			c0,0.1,0,0.2-0.1,0.2c-0.1,0-0.1,0.1-0.1,0.2v0.3L24,148.5l-2-2.2L33.1,133.9z M36.8,139h0.3h0.3c0.2,0.1,0.5,0.3,0.8,0.7
			c0.3,0.3,0.5,0.6,0.6,0.9v0.2v0.5l-10.4,11.5l-2-2.1L36.8,139z M42,143.4h0.6c0.8,0,1.5,0.5,2.1,1.5l-10.4,11.7l-2.6-1.2L42,143.4
			z M47.7,146.3l3.2,1.7l-9.5,10.8c-0.1,0.1-0.3,0.3-0.6,0.4c-0.3,0.2-0.6,0.3-0.8,0.4h-0.2c-1.1,0-1.9-0.5-2.4-1.5L47.7,146.3z
			 M44,161.1l9.8-11h0.8c0.5,0,0.9,0,1.2,0.1c0.3,0.1,0.7,0.3,1.1,0.6l-10.3,11.9h-0.5c-0.5,0-1-0.1-1.4-0.2c-0.5-0.1-0.7-0.5-0.7-1
			V161.1z M60.1,152.3h0.6c0.7,0,1.6,0.2,2.7,0.5l-10.4,12l-3.3-0.7L60.1,152.3z M69.8,36.7L60.7,47c-0.6,0-1.1,0.1-1.5,0.2
			c-0.5,0.1-1,0.2-1.4,0.3c-0.4,0.1-0.8,0.1-1.1,0.3h-0.2h-0.5l7.3-8.3c0.7-0.6,1.6-1.2,2.6-1.8c1.1-0.6,2.1-0.9,3.1-0.9H69.8z
			 M72.5,152.8l-10.4,12h-3.9l10.3-12H72.5z M80.3,34.4c-0.1,0.1-0.2,0.3-0.4,0.7c-0.2,0.3-0.3,0.6-0.4,0.9
			c-0.2,0.2-0.6,0.7-1.2,1.4c-0.6,0.7-1.2,1.4-1.9,2.2c-0.7,0.8-1.3,1.5-2,2.2c-0.7,0.7-1.1,1.1-1.3,1.4c-1.4,1.6-3,2.4-4.8,2.4
			c-0.2,0-0.5,0-0.9-0.1c-0.4-0.1-0.7-0.1-0.9-0.1l9.1-10.3c0.3-0.3,0.9-0.5,1.7-0.6c0.8-0.1,1.5-0.1,2.1-0.1H80.3z M80.3,153.8
			c-0.1,0.1-0.2,0.3-0.4,0.7c-0.2,0.3-0.3,0.6-0.4,0.9l-6.4,7.2c-0.3,0.3-0.8,0.8-1.5,1.4c-0.7,0.6-1.1,0.9-1.2,0.9
			c-0.2,0.1-0.5,0.2-0.8,0.2h-1.2c-0.1,0-0.4,0-0.9-0.1c-0.5-0.1-0.9-0.1-1.1-0.1l10-11H80.3z M87.1,33.6c0.3,0,0.7,0,1.2,0
			c0.5,0,0.8,0.3,0.9,0.9l-9.7,11h-3.9l10.6-11.7h0.5c0.1,0,0.2,0,0.2-0.1C86.9,33.6,87,33.6,87.1,33.6z M89.9,152.8l-9.7,11.4h-3.8
			l9.7-11.4H89.9z M93.3,35.1h0.9c0.3,0,0.7,0,1.2,0c0.5,0,0.8,0.3,0.9,0.9L86.2,47.7l-3.2-1L93.3,35.1z M99,152.3l-9.1,10.3
			c-0.5,0.5-1,0.7-1.4,0.8c-0.5,0.1-0.9,0.1-1.4,0.1c-0.2,0-0.5,0-0.9-0.1c-0.4-0.1-0.7-0.1-0.9-0.1l9.2-10.5c0.5-0.5,1-0.7,1.4-0.6
			c0.5,0.1,0.9,0.1,1.4,0.1H99z M110.7,148.5c-1.5,2.1-3.6,4.3-6.2,6.7c-2.6,2.4-5,4.1-7.3,5.2l8.3-9.6L110.7,148.5z"/>
		<path class="st0" d="M124.7,67.5l-9.7,11v-1.4c0-0.6,0-1.2,0.1-2c0-0.7,0.2-1.3,0.4-1.8l9.2-10.3V67.5z M124.7,73.3
			c0.2,0.6,0.4,1.1,0.5,1.5c0.2,0.5,0.2,1,0.2,1.5v0.7l-10,11h-0.5v-3.8L124.7,73.3z M125.5,82.3v2.1c0,1.3,0,2.1-0.1,2.5
			c-0.1,0.4-0.5,1.1-1.3,2c-0.6,0.7-1.4,1.5-2.3,2.5c-0.9,1-1.8,1.9-2.6,2.8c-1,1.1-2,2.3-2.9,3.4h-0.9v-4.3L125.5,82.3z
			 M125.5,57.1l-9.1,10.3c0.2-1.1,0.5-2.4,0.8-3.9c0.4-1.4,0.9-2.6,1.6-3.4l7.7-8.9L125.5,57.1z M126.1,91.9v4.3l-9.2,10.2h-0.5
			v-3.4L126.1,91.9z M127.3,99.8c0,0.1,0.1,0.3,0.3,0.4c0.2,0.2,0.3,0.3,0.3,0.4c0.2,0.2,0.4,0.6,0.5,1.2c0.2,0.6,0.2,0.9,0.1,1
			l-10.3,11.7c-0.1,0-0.2-0.1-0.4-0.3c-0.2-0.2-0.3-0.3-0.4-0.4c-0.1-0.2-0.2-0.5-0.2-0.7c0-0.2-0.1-0.5-0.2-0.7
			c-0.1-0.3-0.2-0.6-0.3-0.9L127.3,99.8z M129.3,107.9h0.3c0.5,0,0.8,0.3,0.9,0.9c0.1,0.6,0.2,1.1,0.2,1.5c0,0.1,0,0.2-0.1,0.3
			c-0.1,0.1-0.1,0.1-0.1,0.3v0.2l-9.7,11h-0.5h-0.2c-0.3-0.3-0.6-0.8-1-1.4c-0.4-0.6-0.5-0.9-0.4-0.9L129.3,107.9z M122,125.8
			c0-0.1,0.1-0.2,0.2-0.2l9.7-11h0.3c0.5,0,0.8,0.3,0.9,0.9c0.1,0.6,0.2,1,0.2,1.4c0,0.8-0.3,1.5-0.8,2.1l-8.3,9.8h-0.8
			c-0.5,0-0.9-0.3-1.1-0.8c-0.2-0.5-0.3-1.1-0.3-1.6V125.8z M134.4,122l0.3-0.2l0.5,0.2c0.1,0,0.4,0.2,0.8,0.6
			c0.5,0.4,0.8,0.7,1,0.8l-10.4,11.9c0,0.1-0.1,0.2-0.2,0.2h-0.3c-1,0-1.7-0.6-2-1.7L134.4,122z M127.9,67.6c0-2.6,0-5.2,0.2-7.6
			c0.1-2.4,0.5-4.9,1.2-7.4c1.3-5.2,3.4-10.1,6.1-14.7c2.8-4.6,5.7-9.1,8.8-13.3c1.4-1.8,2.9-3.4,4.4-4.6c1.5-1.3,3.3-2.6,5.3-4.1
			c4.3-3.3,9-6.1,14-8.3c5-2.2,10.2-3.4,15.7-3.4c5.6,0,11.1,0.5,16.3,1.5c5.2,1,10.4,3.2,15.4,6.5c0.2,0.1,0.7,0.6,1.6,1.4
			c0.9,0.8,1.4,1.3,1.6,1.5c3.2,2.6,6.4,5.2,9.6,7.6c3.2,2.4,6.1,5.3,8.7,8.6c0,0.1,0.2,0.4,0.6,0.9c0.4,0.5,0.8,1.1,1.3,1.8
			c0.5,0.7,0.9,1.4,1.4,2.2c0.5,0.7,0.9,1.3,1.1,1.6c0.1,0.2,0.3,0.6,0.7,1.2c0.4,0.6,0.6,0.9,0.7,1c0.1,0.1,0.4,0.5,1,1.1
			c0.6,0.6,0.9,1.1,1,1.3c0.1,0.1,0.1,0.6,0.1,1.5c-0.1,0.9-0.1,1.3-0.1,1.5c0,0.2,0.2,0.9,0.6,2.2c0.4,1.2,0.7,1.9,0.8,2.2
			c0,0.1,0,0.4,0.2,0.9c0.1,0.5,0.2,1.1,0.4,1.6c0.2,0.6,0.3,1.1,0.5,1.6c0.2,0.5,0.2,0.8,0.2,0.9c0.1,0.2,0.3,0.7,0.7,1.5
			c0.4,0.8,0.5,1.3,0.5,1.5v3.4c0,0.2,0,0.6,0.1,1.1c0,0.5,0.1,1.1,0.2,1.6c0.1,0.6,0.2,1.1,0.2,1.6c0.1,0.5,0.1,0.8,0.1,0.9
			c0,0.1,0,0.6,0.1,1.5c0,0.9,0.1,1.8,0.1,2.9c0,1.1,0,2.2,0.1,3.3c0,1.1,0.1,2,0.1,2.7c0,4.6-0.2,9.6-0.5,15
			c-0.3,5.4-1.3,10.2-2.9,14.3c-0.2,0.3-0.5,0.9-0.8,1.5c-0.3,0.7-0.6,1.4-0.9,2.2c-0.3,0.8-0.6,1.5-1,2.2c-0.4,0.7-0.6,1.2-0.7,1.5
			c-0.1,0.2-0.3,0.6-0.7,1.1c-0.4,0.5-0.6,0.9-0.7,1.1c-2.3,3.2-4.8,6.4-7.5,9.5c-2.7,3.1-5.3,6.1-7.9,8.9c-1.7,1.8-3.7,3.4-6.1,4.8
			c-2.3,1.4-4.4,2.7-6.4,4c-3.1,2-6.8,3.2-11,3.7c-4.2,0.5-7.9,0.8-11.3,0.8c-6.5,0-12.6-0.9-18.5-2.6c-5.9-1.7-11.4-4.5-16.8-8.4
			c-0.4-0.2-0.9-0.6-1.6-1c-0.7-0.5-1.3-0.9-1.9-1.5s-1.1-0.9-1.6-1.3c-0.5-0.3-0.7-0.6-0.8-0.7c-0.1,0-0.6-0.5-1.6-1.5
			c-1-1-2.1-2.2-3.4-3.5c-1.3-1.4-2.6-2.8-4-4.1c-1.4-1.4-2.5-2.5-3.4-3.4c0.1,0,0-0.2-0.3-0.5l-0.3-0.3c-0.1-0.2-0.3-0.9-0.6-2.2
			c-0.3-1.2-0.5-1.9-0.6-2.2c-1.2-3.3-2.4-6.5-3.6-9.5c-1.2-3-2.2-6.3-2.9-9.8c-0.1-0.1-0.1-0.6-0.1-1.4c0.1-0.8,0.1-1.3,0.1-1.4
			c-0.4-4.2-0.7-8.4-1-12.5C128,76,127.9,71.9,127.9,67.6z M129.1,137.8c0-0.1,0-0.2,0.2-0.3l10.3-11.9l2,2.2l-10.3,11.9h-0.3h-0.5
			c-0.1-0.2-0.3-0.5-0.7-0.8c-0.4-0.3-0.5-0.5-0.5-0.8L129.1,137.8z M133.8,142.5l10.4-11.7l2,2.2l-10.4,11.7c0,0.1-0.1,0.2-0.2,0.2
			h-0.3l-0.2-0.2c-0.2,0-0.5-0.2-0.8-0.5c-0.3-0.3-0.5-0.6-0.6-0.9V143V142.5z M138.2,147l10.4-11.7c0.3,0,0.7,0.3,1.2,0.9
			c0.5,0.6,0.8,1,0.8,1.4c0,0.1-0.2,0.5-0.5,1c-0.4,0.6-0.6,1-0.8,1.2c-0.3,0.3-0.9,1-1.7,1.9c-0.8,0.9-1.6,1.9-2.5,2.9
			c-0.9,1-1.7,2-2.5,2.8c-0.8,0.9-1.4,1.5-1.7,1.8h-0.3c-0.5,0-1-0.2-1.6-0.5c-0.6-0.3-0.8-0.8-0.8-1.4V147z M153.9,139.7h0.2h0.5
			c0.2,0.1,0.5,0.3,1,0.7c0.5,0.3,0.7,0.6,0.8,0.9l-10.1,11.5c0,0.1-0.1,0.2-0.2,0.2c-0.1,0.1-0.2,0.2-0.3,0.2
			c-0.4,0-0.8-0.2-1.3-0.5c-0.5-0.3-0.8-0.8-1-1.4L153.9,139.7z M149.2,154.4l9.7-11h0.3c0.1,0,0.2,0,0.2-0.1c0-0.1,0.1-0.1,0.2-0.1
			c0.4,0,0.9,0.1,1.4,0.3c0.5,0.2,0.8,0.5,0.8,1.1v0.2l-9.7,11.2h-0.6c-0.4,0-0.9-0.1-1.4-0.2c-0.5-0.1-0.8-0.4-0.8-0.9V154.4z
			 M155.9,87.4c0.1,0.2,0.3,0.6,0.6,1.1c0.3,0.5,0.5,0.9,0.5,1.1c0.2,0.1,0.4,0.5,0.5,1.1c0.1,0.6,0.2,1,0.3,1.1
			c0.1,0.2,0.3,0.8,0.7,1.7c0.4,0.9,0.7,1.9,1.1,3c0.4,1.1,0.8,2.2,1.2,3.2c0.4,1,0.7,1.8,0.9,2.2c1.4,3.8,3,6.8,4.8,8.9
			c1.8,2.2,3.9,3.8,6.1,4.8c2.3,1,4.8,1.7,7.6,2c2.8,0.3,5.8,0.4,9.2,0.4c5.8,0,11.2-1.1,16-3.2c4.8-2.1,9.1-5.9,12.8-11.4
			c0.1-0.2,0.3-0.6,0.6-1.2c0.3-0.6,0.5-0.9,0.5-1c1.2-3.6,1.9-7.1,2-10.8c0.1-3.6,0.2-7.3,0.2-11.1c0-0.3,0-1,0-1.9
			c0-0.9,0-1.9-0.1-2.9c-0.1-1-0.1-2-0.1-3c0-1,0-1.6,0-2c-0.2-1.4-0.6-3.3-1.1-5.9c-0.5-2.5-1.2-5.1-2-7.8
			c-0.8-2.7-1.7-5.2-2.7-7.5c-1-2.3-2.1-3.8-3.2-4.6c-0.1,0-0.5-0.1-1.1-0.3c-0.6-0.2-0.9-0.3-0.9-0.4c-0.1-0.1-0.3-0.5-0.6-1.1
			c-0.3-0.6-0.6-1-0.8-1.1c-0.1-0.2-0.3-0.5-0.6-0.9c-0.3-0.4-0.6-0.6-0.8-0.6c-2.8-1.9-5.9-3.4-9.3-4.4c-3.4-1-6.7-1.5-10.1-1.5
			c-4.5,0-8.8,0.7-12.9,2.2c-4,1.5-7.6,3.7-10.7,6.6c-3.1,2.9-5.5,6.5-7.3,10.8c-1.8,4.2-2.7,9.1-2.7,14.6c0,3.2,0.2,6.5,0.5,9.7
			C155.3,80.8,155.6,84.1,155.9,87.4z M165.6,146.3h0.2h0.3c0.2,0.1,0.4,0.2,0.6,0.2c0.2,0,0.4,0.1,0.6,0.2c0.3,0.1,0.6,0.2,0.8,0.3
			l0.3,0.3l-0.3,0.5l-9.7,11h-0.8c-0.5,0-0.9,0-1.3-0.1c-0.4-0.1-0.7-0.3-1.1-0.6L165.6,146.3z M171.9,148.5h0.3
			c0.5,0,1,0.1,1.6,0.2c0.6,0.1,0.8,0.6,0.8,1.4v0.7l-8.6,9.6c-0.3,0.5-1,0.7-2.1,0.7c-0.5,0-0.9,0-1.2-0.1
			c-0.3-0.1-0.7-0.3-1.1-0.6L171.9,148.5z M167.4,49.2c-0.1,0-0.3,0.1-0.6,0.3c-0.3,0.2-0.6,0.3-0.8,0.3c-0.1,0-0.6,0.1-1.4,0.3
			c-0.8,0.2-1.4,0.3-1.8,0.3h-0.3h-0.3c0.2-0.3,0.7-0.9,1.4-1.7c0.7-0.8,1.5-1.7,2.3-2.6c0.9-0.9,1.7-1.8,2.4-2.7
			c0.8-0.9,1.3-1.5,1.6-1.8c0.7-0.6,1.7-1.1,3.1-1.7c1.4-0.6,2.5-1,3.6-1.2L167.4,49.2z M179,150.7h3.9l-10.3,11.9h-1.2
			c-0.2,0-0.6,0-1.1,0c-0.5,0-0.9-0.3-1.1-0.9L179,150.7z M181.6,37.9c0.6-0.6,1.4-0.9,2.3-1c0.9-0.1,1.7-0.2,2.4-0.2h0.5
			l-10.1,11.5c-0.1,0.1-0.2,0.2-0.3,0.2c-0.1,0.1-0.4,0.2-0.8,0.2c-0.7,0-1.5-0.3-2.3-0.9L181.6,37.9z M186.8,151.3h3.9l-10.3,12
			h-0.9c-0.4,0-0.8,0-1.1-0.1c-0.4-0.1-0.8-0.3-1.3-0.6L186.8,151.3z M191.4,37.2h3.2v0.7l-9.7,11.4h-0.8c-0.5,0-1,0-1.4-0.1
			c-0.4-0.1-0.8-0.4-1.2-0.9L191.4,37.2z M200.4,150.7l-8.9,10.3c-0.3,0.3-0.8,0.5-1.6,0.6c-0.8,0.1-1.4,0.1-2,0.1h-1.1l9.2-10.5
			c0.2-0.2,0.7-0.4,1.5-0.4c0.8-0.1,1.5-0.1,2-0.1H200.4z M198.4,38.7h0.3c0.1,0,0.2,0,0.2-0.1c0-0.1,0.1-0.1,0.2-0.1
			c0.5,0,1,0.1,1.4,0.3c0.5,0.2,0.7,0.6,0.7,1.2V41l-8.5,9.5c-0.3,0.5-0.6,0.7-1,0.8c-0.4,0.1-0.7,0.1-1.1,0.1c-0.5,0-0.9,0-1.2-0.1
			c-0.3-0.1-0.7-0.3-1.2-0.8L198.4,38.7z M205.1,41.7c0.1,0.1,0.3,0.2,0.5,0.3l0.9,0.5l0.6,0.7v0.5v0.2l-10.6,11.9l-1.8-2.2
			L205.1,41.7z M211.4,147.8c-0.2,0.8-0.9,1.9-2,3.2c-1.1,1.3-2.4,2.6-3.9,3.9c-1.5,1.3-3,2.3-4.5,3.3c-1.5,0.9-2.7,1.4-3.5,1.4
			h-0.2l9.1-10.3c0.2-0.1,0.5-0.2,0.8-0.3c0.2-0.1,0.4-0.2,0.6-0.2c0.2,0,0.4-0.1,0.6-0.2c0.2-0.1,0.7-0.3,1.5-0.4
			C210.7,147.9,211.2,147.8,211.4,147.8z M208.8,47c0.2-0.2,0.5-0.4,0.8-0.6c0.3-0.2,0.5-0.3,0.6-0.3c0,0.1,0.2,0.3,0.5,0.7
			c0.4,0.3,0.6,0.6,0.7,0.9l0.2,0.3l-0.2,0.2l-10.3,12l-2-2.2L208.8,47z M203.1,63.7L213.4,52c0.1,0,0.2,0.1,0.4,0.3
			c0.2,0.2,0.3,0.3,0.4,0.3c0,0.2,0.1,0.7,0.3,1.4c0.1,0.3,0.2,0.6,0.3,0.9l-10.3,11.9c-0.9-0.6-1.4-1.4-1.4-2.6V63.7z M205.7,70.6
			l9.7-11.4h0.3c0.5,0,0.8,0.3,0.9,0.9c0.1,0.6,0.2,1,0.2,1.4c0,0.5,0,0.9-0.1,1.2c-0.1,0.3-0.2,0.7-0.5,1l-8.6,9.6l-1.1,0.7
			c-0.5-0.8-0.8-1.8-0.8-3.1V70.6z M207.5,78.5l10.6-11.7c0.1,0.2,0.2,0.7,0.3,1.5c0.1,0.7,0.2,1.2,0.2,1.5c0,0.1-0.1,0.3-0.2,0.7
			c-0.1,0.3-0.2,0.6-0.3,0.9l-9.7,11c-0.6-1.1-0.9-2.2-0.9-3.1V78.5z M217.2,96.9l0.3,0.7c0,0.8-0.4,1.9-1.1,3.3
			c-0.7,1.4-1.6,2.7-2.6,4c-1,1.3-2,2.5-3,3.4c-1,1-1.8,1.5-2.4,1.5v-2.6L217.2,96.9z M218.5,75.6V80l-9.7,11v-4.5L218.5,75.6z
			 M218.5,85.9v1.9c0,0.6,0,1.1,0.1,1.7c0,0.6-0.1,1.1-0.5,1.5l-9.2,10.3v-4.5L218.5,85.9z"/>
		<path class="st0" d="M271.3,38.2c0,0.5,0,1.3-0.1,2.4c-0.1,1.1-0.4,2-1,2.6l-8.3,9.6l-1.4,0.7v-1.7c0-0.7,0-1.3,0-1.8
			c0-0.5,0.2-1,0.6-1.5l9.1-10.3H271.3z M271.2,47.7V52l-10,11h-0.6v-3.4L271.2,47.7z M271.2,58v3.8l-10.6,11.5v-1.7
			c0-0.6,0-1.1,0-1.7c0-0.6,0.2-1.1,0.6-1.5l9.1-10.3H271.2z M271.2,67.6v1.7c0,0.6,0,1.1-0.1,1.7c-0.1,0.6-0.3,1.1-0.8,1.7
			l-9.1,10.3h-0.6v-3.8L271.2,67.6z M260.6,89.7c0-0.1,0.1-0.4,0.2-0.8c0.2-0.4,0.3-0.7,0.4-0.8l10-11v2.2c0,0.7,0,1.3-0.1,2
			c-0.1,0.6-0.3,1.2-0.8,1.8l-8.3,9.5h-0.8c-0.1,0-0.2-0.4-0.4-1.1C260.7,90.7,260.6,90.1,260.6,89.7z M271.2,117
			c0.1,0.2,0.2,0.8,0.3,1.7c0.1,0.9,0.2,1.5,0.2,1.7c0,0.2-0.2,0.6-0.5,1.1c-0.4,0.5-0.6,0.9-0.8,1.1c-0.6,0.8-1.4,1.7-2.3,2.8
			c-0.9,1-1.8,2.1-2.7,3.1l-3.3,3.8H261c0-0.5,0-1.3,0.2-2.6c0.1-1.3,0.4-2.1,0.8-2.6L271.2,117z M271.2,17.4v4.5l-10,11v-4.5
			L271.2,17.4z M271.2,27.7v1.9c0,0.6,0,1.1-0.1,1.7c-0.1,0.6-0.3,1.1-0.8,1.5l-9.1,10.3v-4.5L271.2,27.7z M271.2,87.4v4.5l-10,11
			v-4.5L271.2,87.4z M271.2,96.9v4.5l-10,11.2v-4.6L271.2,96.9z M271.2,107.2c0.4,0.2,0.6,0.7,0.5,1.3c-0.1,0.6-0.1,1.1-0.1,1.3v1.2
			l-10.4,11.7v-4.5L271.2,107.2z M273,149.4l-10.4,11.7h-0.8c0-0.5,0.1-1.3,0.2-2.4c0.2-1.1,0.3-1.8,0.5-2.1l9.1-10.3L273,149.4z
			 M272.2,125.8v4.5l-9.7,11h-0.6v-3.8L272.2,125.8z M272.2,135.3v4.5l-9.7,11v-4.5L272.2,135.3z M275.6,151.6
			c0.1,0,0.2-0.1,0.3-0.2c0.1,0,0.2,0,0.2-0.1c0-0.1,0.1-0.1,0.2-0.1c0.4,0,1,0.1,1.7,0.2c0.7,0.1,1.1,0.5,1.1,1.2v0.2
			c-0.3,0.3-0.9,1-1.7,2c-0.9,1-1.7,2-2.6,3c-0.9,1-1.8,2-2.6,2.9c-0.8,0.9-1.4,1.5-1.7,1.9c-0.1,0.1-0.4,0.3-0.8,0.7
			c-0.5,0.3-0.8,0.6-1,0.9H268h-0.2c-0.2-0.2-0.7-0.4-1.4-0.5c-0.7-0.1-1.2-0.2-1.4-0.3L275.6,151.6z M286.6,153.8l-8.5,9.5
			c0,0.1-0.2,0.2-0.5,0.3c-0.4,0.1-0.6,0.3-0.7,0.5c-0.2,0-0.7,0.1-1.5,0.2c-0.8,0.1-1.4,0.3-1.8,0.5h-0.3H273l10.3-12L286.6,153.8z
			 M274.9,127.2c0-0.2-0.1-0.8-0.2-1.6c-0.1-0.9-0.2-1.8-0.2-2.8c-0.1-1-0.1-1.9-0.2-2.8c-0.1-0.9-0.2-1.5-0.2-1.7
			c-0.4-10.8-0.6-21.5-0.6-32.3c0-10.7,0-21.5,0-32.4V32.9c0-1.6,0-3.6,0.1-6.1c0.1-2.5,0.1-4.9,0.2-7.2c0.1-2.4,0.2-5.2,0.3-8.7
			l0.8-0.7c0-0.1,1-0.3,3.1-0.5c2.1-0.2,4.5-0.5,7.3-0.7c2.8-0.2,5.7-0.5,8.7-0.7c3-0.2,5.4-0.3,7.3-0.3c0.1,0,0.5,0,1.1,0
			c0.7,0,1.4,0,2.3-0.1c0.9-0.1,1.8-0.1,2.7-0.1c0.9,0,1.7,0,2.3,0s1.5,0,2.6,0c1.1,0,2.2,0,3.3,0.1c1.1,0.1,2.1,0.1,2.9,0.1
			c0.9,0,1.4,0,1.6,0c0.7,0,2.1,0,4.1,0.1c2,0.1,4.2,0.1,6.4,0.2c2.3,0.1,4.4,0.1,6.4,0.3c2,0.1,3.4,0.2,4.2,0.2
			c1.3,2.1,2.1,4.6,2.3,7.6c0.2,3,0.4,5.7,0.4,8.3c0,2.3-0.3,4.2-0.8,5.6c-0.6,1.4-1.4,2.6-2.4,3.4c-1.1,0.9-2.3,1.5-3.8,2
			c-1.5,0.5-3.1,0.9-4.8,1.2c-0.5,0.1-1.5,0.2-3,0.3c-1.5,0.1-2.4,0.2-2.8,0.2c-0.8,0.1-2.3,0.2-4.5,0.3c-2.2,0.1-4.5,0.1-6.9,0.3
			c-2.4,0.1-4.7,0.2-6.8,0.3c-2.1,0.1-3.6,0.1-4.5,0.3v5.9c0,0.9,0,2.1,0.1,3.5c0.1,1.4,0.1,2.8,0.2,4c0.1,1.5,0.2,3.1,0.3,4.8
			l0.8,0.9h5.6c3.6,0,7.3-0.1,10.9-0.4c3.6-0.3,7.3-0.4,10.9-0.4c1.7,0,3.2,0.1,4.4,0.4c1.2,0.3,2.1,1.4,2.6,3.4
			c0,0.5,0.1,1,0.3,1.7c0.1,0.3,0.2,0.7,0.2,1v19.3c0,1.5-0.7,2.9-2.2,4.3c-1.5,1.4-2.9,2.1-4.2,2.1h-29.2v48.9c0,0.2-0.1,1-0.2,2.4
			c-0.2,1.4-0.3,2.4-0.4,2.9c-0.1,1.4-0.8,2.8-2,4.3c-0.2,0.2-0.5,0.6-1,1c-0.5,0.5-0.7,0.7-0.8,0.7h-13c-0.3,0.6-0.6,0.9-0.8,1
			c-0.3,0.1-0.6,0.2-1.1,0.2h-0.6c-0.1,0-0.3-0.1-0.7-0.3c-0.4-0.2-0.6-0.3-0.7-0.3c-0.6-0.1-1.3-0.2-2-0.3
			c-0.8-0.1-1.5-0.2-2.3-0.3c-0.8-0.2-1.6-0.4-2.3-0.8c-0.7-0.3-1.3-0.9-1.7-1.7V127.2z M292.3,152.3h3.9l-9.7,11
			c-0.5,0.6-1.2,0.9-2,0.9c-0.8,0.1-1.5,0.1-2,0.1v-1L292.3,152.3z M306.6,51.3v-0.5v-1c0.1-0.5,0.2-1.1,0.4-2.1
			c0.2-0.9,0.3-1.4,0.4-1.4c0.2-0.3,0.5-0.8,1-1.5c0.5-0.6,0.9-1.2,1.4-1.8c0.5-0.6,0.9-1.1,1.3-1.5c0.4-0.4,0.7-0.6,0.8-0.6h3.9
			L306.6,51.3z M306.6,96.9c0-0.1,0.1-0.3,0.3-0.6c0.2-0.3,0.4-0.5,0.5-0.6c0.3-0.6,0.9-1.3,1.7-2.2c0.9-0.9,1.4-1.4,1.6-1.5h0.8
			c0.2,0,0.4,0,0.5-0.1c0.2-0.1,0.3-0.1,0.5-0.1c0.2,0,0.5,0,1,0.1c0.5,0.1,0.8,0.1,1,0.1l-7.1,8.1c-0.1-0.2-0.3-0.7-0.5-1.5
			C306.7,97.6,306.6,97.1,306.6,96.9z M319.6,91.9h3.8l-9.7,11c-0.5,0.6-1.2,0.9-2,0.9c-0.6,0-1.2-0.3-1.8-0.9L319.6,91.9z
			 M324.1,41l-9.7,11h-3.8l9.7-11H324.1z M331.8,91.9v0.7c-1,1.1-1.8,2.1-2.5,2.9c-0.7,0.8-1.4,1.6-2.1,2.4
			c-0.8,0.8-1.4,1.5-1.9,2.1c-0.9,0.9-1.8,1.6-2.6,2.2c-0.8,0.5-1.8,0.8-2.9,0.8h-1.5l9.7-11H331.8z M334.4,39.4l-9.1,10.3l-5,1.5
			l9.7-11c0.2-0.2,0.7-0.4,1.5-0.6c0.8-0.2,1.5-0.3,2-0.3H334.4z"/>
		<path class="st0" d="M365.9,38.2c0,0.5,0,1.3-0.1,2.4c-0.1,1.1-0.4,2-1,2.6l-8.3,9.6l-1.4,0.7v-1.7c0-0.7,0-1.3,0-1.8
			c0-0.5,0.2-1,0.6-1.5l9.1-10.3H365.9z M365.7,47.7V52l-10,11h-0.6v-3.4L365.7,47.7z M365.7,58v3.8l-10.6,11.5v-1.7
			c0-0.6,0-1.1,0-1.7c0-0.6,0.2-1.1,0.6-1.5l9.1-10.3H365.7z M365.7,67.6v1.7c0,0.6,0,1.1-0.1,1.7c-0.1,0.6-0.3,1.1-0.8,1.7
			l-9.1,10.3h-0.6v-3.8L365.7,67.6z M355.1,89.7c0-0.1,0.1-0.4,0.2-0.8c0.2-0.4,0.3-0.7,0.4-0.8l10-11v2.2c0,0.7,0,1.3-0.1,2
			c-0.1,0.6-0.3,1.2-0.8,1.8l-8.3,9.5h-0.8c-0.1,0-0.2-0.4-0.4-1.1C355.2,90.7,355.1,90.1,355.1,89.7z M365.7,117
			c0.1,0.2,0.2,0.8,0.3,1.7c0.1,0.9,0.2,1.5,0.2,1.7c0,0.2-0.2,0.6-0.5,1.1c-0.4,0.5-0.6,0.9-0.8,1.1c-0.6,0.8-1.4,1.7-2.3,2.8
			c-0.9,1-1.8,2.1-2.7,3.1l-3.3,3.8h-0.9c0-0.5,0-1.3,0.2-2.6c0.1-1.3,0.4-2.1,0.8-2.6L365.7,117z M365.7,17.4v4.5l-10,11v-4.5
			L365.7,17.4z M365.7,27.7v1.9c0,0.6,0,1.1-0.1,1.7c-0.1,0.6-0.3,1.1-0.8,1.5l-9.1,10.3v-4.5L365.7,27.7z M365.7,87.4v4.5l-10,11
			v-4.5L365.7,87.4z M365.7,96.9v4.5l-10,11.2v-4.6L365.7,96.9z M365.7,107.2c0.4,0.2,0.6,0.7,0.5,1.3c-0.1,0.6-0.1,1.1-0.1,1.3v1.2
			l-10.4,11.7v-4.5L365.7,107.2z M367.5,149.4l-10.4,11.7h-0.8c0-0.5,0.1-1.3,0.2-2.4c0.2-1.1,0.3-1.8,0.5-2.1l9.1-10.3L367.5,149.4
			z M366.8,125.8v4.5l-9.7,11h-0.6v-3.8L366.8,125.8z M366.8,135.3v4.5l-9.7,11v-4.5L366.8,135.3z M370.1,151.6
			c0.1,0,0.2-0.1,0.3-0.2c0.1,0,0.2,0,0.2-0.1c0-0.1,0.1-0.1,0.2-0.1c0.4,0,1,0.1,1.7,0.2c0.7,0.1,1.1,0.5,1.1,1.2v0.2
			c-0.3,0.3-0.9,1-1.7,2c-0.9,1-1.7,2-2.6,3c-0.9,1-1.8,2-2.6,2.9c-0.8,0.9-1.4,1.5-1.7,1.9c-0.1,0.1-0.4,0.3-0.8,0.7
			c-0.5,0.3-0.8,0.6-1,0.9h-0.5h-0.2c-0.2-0.2-0.7-0.4-1.4-0.5c-0.7-0.1-1.2-0.2-1.4-0.3L370.1,151.6z M381.1,153.8l-8.5,9.5
			c0,0.1-0.2,0.2-0.5,0.3c-0.4,0.1-0.6,0.3-0.7,0.5c-0.2,0-0.7,0.1-1.5,0.2c-0.8,0.1-1.4,0.3-1.8,0.5h-0.3h-0.3l10.3-12L381.1,153.8
			z M369.5,127.2c0-0.2-0.1-0.8-0.2-1.6c-0.1-0.9-0.2-1.8-0.2-2.8c-0.1-1-0.1-1.9-0.2-2.8c-0.1-0.9-0.2-1.5-0.2-1.7
			c-0.4-10.8-0.6-21.5-0.6-32.3c0-10.7,0-21.5,0-32.4V32.9c0-1.6,0-3.6,0.1-6.1c0.1-2.5,0.1-4.9,0.2-7.2c0.1-2.4,0.2-5.2,0.3-8.7
			l0.8-0.7c0-0.1,1-0.3,3.1-0.5c2.1-0.2,4.5-0.5,7.3-0.7c2.8-0.2,5.7-0.5,8.7-0.7c3-0.2,5.4-0.3,7.3-0.3c0.1,0,0.5,0,1.1,0
			c0.7,0,1.4,0,2.3-0.1c0.9-0.1,1.8-0.1,2.7-0.1c0.9,0,1.7,0,2.3,0s1.5,0,2.6,0c1.1,0,2.2,0,3.3,0.1c1.1,0.1,2.1,0.1,2.9,0.1
			c0.9,0,1.4,0,1.6,0c0.7,0,2.1,0,4.1,0.1c2,0.1,4.2,0.1,6.4,0.2c2.3,0.1,4.4,0.1,6.4,0.3c2,0.1,3.4,0.2,4.2,0.2
			c1.3,2.1,2.1,4.6,2.3,7.6c0.2,3,0.4,5.7,0.4,8.3c0,2.3-0.3,4.2-0.8,5.6c-0.6,1.4-1.4,2.6-2.4,3.4c-1.1,0.9-2.3,1.5-3.8,2
			c-1.5,0.5-3.1,0.9-4.8,1.2c-0.5,0.1-1.5,0.2-3,0.3c-1.5,0.1-2.4,0.2-2.8,0.2c-0.8,0.1-2.3,0.2-4.5,0.3c-2.2,0.1-4.5,0.1-6.9,0.3
			c-2.4,0.1-4.7,0.2-6.8,0.3c-2.1,0.1-3.6,0.1-4.5,0.3v5.9c0,0.9,0,2.1,0.1,3.5c0.1,1.4,0.1,2.8,0.2,4c0.1,1.5,0.2,3.1,0.3,4.8
			l0.8,0.9h5.6c3.6,0,7.3-0.1,10.9-0.4c3.6-0.3,7.3-0.4,10.9-0.4c1.7,0,3.2,0.1,4.4,0.4c1.2,0.3,2.1,1.4,2.6,3.4
			c0,0.5,0.1,1,0.3,1.7c0.1,0.3,0.2,0.7,0.2,1v19.3c0,1.5-0.7,2.9-2.2,4.3c-1.5,1.4-2.9,2.1-4.2,2.1h-29.2v48.9c0,0.2-0.1,1-0.2,2.4
			c-0.2,1.4-0.3,2.4-0.4,2.9c-0.1,1.4-0.8,2.8-2,4.3c-0.2,0.2-0.5,0.6-1,1c-0.5,0.5-0.7,0.7-0.8,0.7h-13c-0.3,0.6-0.6,0.9-0.8,1
			c-0.3,0.1-0.6,0.2-1.1,0.2h-0.6c-0.1,0-0.3-0.1-0.7-0.3c-0.4-0.2-0.6-0.3-0.7-0.3c-0.6-0.1-1.3-0.2-2-0.3
			c-0.8-0.1-1.5-0.2-2.3-0.3c-0.8-0.2-1.6-0.4-2.3-0.8c-0.7-0.3-1.3-0.9-1.7-1.7V127.2z M386.9,152.3h3.9l-9.7,11
			c-0.5,0.6-1.2,0.9-2,0.9c-0.8,0.1-1.5,0.1-2,0.1v-1L386.9,152.3z M401.1,51.3v-0.5v-1c0.1-0.5,0.2-1.1,0.4-2.1
			c0.2-0.9,0.3-1.4,0.4-1.4c0.2-0.3,0.5-0.8,1-1.5c0.5-0.6,0.9-1.2,1.4-1.8c0.5-0.6,0.9-1.1,1.3-1.5c0.4-0.4,0.7-0.6,0.8-0.6h3.9
			L401.1,51.3z M401.1,96.9c0-0.1,0.1-0.3,0.3-0.6c0.2-0.3,0.4-0.5,0.5-0.6c0.3-0.6,0.9-1.3,1.7-2.2c0.9-0.9,1.4-1.4,1.6-1.5h0.8
			c0.2,0,0.4,0,0.5-0.1c0.2-0.1,0.3-0.1,0.5-0.1c0.2,0,0.5,0,1,0.1c0.5,0.1,0.8,0.1,1,0.1l-7.1,8.1c-0.1-0.2-0.3-0.7-0.5-1.5
			C401.2,97.6,401.1,97.1,401.1,96.9z M414.1,91.9h3.8l-9.7,11c-0.5,0.6-1.2,0.9-2,0.9c-0.6,0-1.2-0.3-1.8-0.9L414.1,91.9z
			 M418.7,41L409,52h-3.8l9.7-11H418.7z M426.4,91.9v0.7c-1,1.1-1.8,2.1-2.5,2.9c-0.7,0.8-1.4,1.6-2.1,2.4c-0.8,0.8-1.4,1.5-1.9,2.1
			c-0.9,0.9-1.8,1.6-2.6,2.2c-0.8,0.5-1.8,0.8-2.9,0.8h-1.5l9.7-11H426.4z M428.9,39.4l-9.1,10.3l-5,1.5l9.7-11
			c0.2-0.2,0.7-0.4,1.5-0.6c0.8-0.2,1.5-0.3,2-0.3H428.9z"/>
		<path class="st0" d="M459.4,13.1l-9.7,11.2v-1c0-1,0.2-2.1,0.6-3.1c0.4-1,0.9-1.9,1.4-2.8c0.3-0.3,0.8-0.9,1.6-1.7
			c0.8-0.8,1.5-1.7,2.3-2.6c0.8-0.9,1.6-1.8,2.3-2.7c0.7-0.9,1.2-1.5,1.5-1.8V13.1z M459.4,18.3h1.2c0,1.4-0.1,2.5-0.2,3.3
			c-0.2,0.8-0.6,1.7-1.4,2.8c-0.6,0.7-1.4,1.6-2.3,2.7c-1,1.1-1.9,2.2-2.8,3.2c-0.9,1-1.7,1.9-2.3,2.6c-0.7,0.7-1,1-1.1,1h-0.6v-4.5
			L459.4,18.3z M460.3,27.7v4.5l-10,11.2v-4.6L460.3,27.7z M460.3,37.5v4.3l-10,11v-4.3L460.3,37.5z M450.3,58.9L460.7,47v4.3
			l-9.7,11c-0.5-0.1-0.8-0.5-0.8-1c0-0.6,0-1,0-1.4V58.9z M460.7,56.6v2.2c0,0.6,0,1.2,0.1,1.8c0.1,0.6-0.1,1.2-0.5,1.6l-8.6,9.8
			H451v-4.5L460.7,56.6z M461.3,66.1v4.5l-9.7,11H451V78L461.3,66.1z M451.5,97.8c0-0.1,0-0.3,0.2-0.5l10.4-12v4.5l-9.8,11
			c-0.4-0.1-0.6-0.5-0.7-1c-0.1-0.6-0.1-1-0.1-1.4V97.8z M461.3,75.7v4.5l-9.7,11v-4.5L461.3,75.7z M462.1,119.3l-9.8,11v-1.9
			c0-0.6,0-1.1,0-1.7c0-0.6,0.3-1.1,0.8-1.5l9.1-10.3V119.3z M462.1,125.1v4.5l-9.8,11v-4.5L462.1,125.1z M462.1,134.6h0.8
			c0,0.6,0,1.4,0,2.6c0,1.1-0.3,2.1-0.8,2.8l-9.8,11v-5.3L462.1,134.6z M452.2,155.9l9.8-11c0.2,0.2,0.5,0.6,0.8,1.1
			c0.3,0.5,0.5,0.9,0.5,1.1v0.2c0,0.1,0,0.2,0.1,0.2c0.1,0,0.1,0.1,0.1,0.2l-0.2,0.2L453,159.7c-0.5-0.1-0.8-0.5-0.8-1.1
			c0-0.6,0-1.1,0-1.3V155.9z M462.7,94.1v2.1c0,0.7,0,1.3,0,2c0,0.6-0.2,1.2-0.6,1.8l-8.5,9.8H453v-4.6L462.7,94.1z M462.7,104.5
			v4.3l-9.7,11v-4.3L462.7,104.5z M456.2,161.2l10.4-11.9h0.3h0.3c0.2,0.1,0.4,0.3,0.7,0.7c0.2,0.3,0.5,0.6,0.7,0.9v0.2v0.5l-9.7,11
			c-0.1,0.1-0.3,0.2-0.5,0.2h-0.6c-0.3,0-0.7-0.1-1.1-0.3c-0.4-0.2-0.6-0.5-0.6-1.1V161.2z M465.1,85.2c-0.1-1.6-0.2-4.1-0.4-7.4
			c-0.2-3.3-0.3-7.1-0.5-11.3c-0.2-4.2-0.3-8.6-0.5-13.2c-0.2-4.6-0.4-9.1-0.5-13.3c-0.2-4.2-0.3-8-0.4-11.4
			c-0.1-3.3-0.2-5.8-0.2-7.4v-7.1V7.3c0-0.9,0.3-1.7,0.8-2.5c0.6-0.7,1.1-1.3,1.7-1.8h10.4c0.1,0,0.5-0.1,1.2-0.2
			c0.7-0.1,1.5-0.2,2.3-0.3c0.8-0.1,1.6-0.1,2.3-0.3c0.7-0.1,1.2-0.2,1.4-0.2H500h15.7c0.6,0,1.7,0.1,3.3,0.2
			c1.6,0.1,3.3,0.3,5.1,0.4c1.8,0.2,3.5,0.3,5.1,0.5c1.6,0.2,2.6,0.3,3.3,0.4c0.2,0,0.5,0.1,0.8,0.2c0.3,0.1,0.5,0.2,0.6,0.3
			c0.3,0.6,0.7,1.4,1.2,2.6c0.5,1.1,0.8,1.8,0.8,1.9v20.1c0,0.7-0.5,1.4-1.6,2.2c-1.1,0.8-1.8,1.2-2.3,1.2l-35.5,1.5
			c-0.3,0-0.7,0.1-1.2,0.3c-0.5,0.2-0.8,0.3-0.8,0.4c-0.1,0.1-0.2,0.6-0.4,1.5c-0.2,0.9-0.3,1.7-0.4,2.2c0,0.3-0.1,0.8-0.2,1.4
			c-0.1,0.6-0.2,1.2-0.2,1.8c-0.1,0.6-0.1,1.2-0.2,1.7c-0.1,0.5-0.1,0.8-0.1,0.9v4.8v3.3l2.6,1.2h25.3l11,2.4c0.8,0.2,1.5,1.2,2,2.8
			c0.5,1.7,0.9,3.5,1.2,5.5c0.3,2,0.5,4,0.6,5.9c0.1,1.9,0.2,3.1,0.2,3.7c0,2.6-0.5,4.6-1.5,5.9c-1,1.3-2.3,2.2-3.9,2.7
			c-1.6,0.5-3.4,0.8-5.3,0.8c-1.9,0-3.8,0.1-5.6,0.2c-0.9,0-2.5,0.1-4.8,0.2c-2.3,0.1-4.8,0.2-7.4,0.3c-2.6,0.1-5.1,0.1-7.4,0.2
			c-2.3,0.1-3.9,0.1-4.8,0.1c0,0.3-0.1,1-0.2,2c-0.1,1-0.2,2-0.2,3.1c-0.1,1.1-0.1,2.2-0.2,3.2c-0.1,1-0.1,1.7-0.1,2.1
			c0,0.2,0,1.2-0.1,2.8c-0.1,1.7-0.1,3-0.1,3.9c0,0.5,0,1,0,1.7s0,1.4,0.1,2.1c0.1,0.7,0.1,1.5,0.1,2.6c0,0.6,0.1,1.6,0.2,3.1
			c0.2,1.5,0.3,2.5,0.4,2.9c0.1,0.7,0.3,1.4,0.5,2.1c0.2,0.7,0.7,1,1.5,1h39.5c0.2,0,0.8,0.1,1.7,0.3c0.9,0.2,1.5,0.5,1.7,1.1v7.1
			v7.1c0,0.5,0,1.3-0.1,2.5c-0.1,1.2-0.1,2.5-0.2,3.8c-0.1,1.3-0.2,2.6-0.2,3.8c-0.1,1.2-0.1,2-0.1,2.5c-0.6,1.3-1.4,2-2.3,2.2
			c-0.9,0.2-1.9,0.4-3,0.5c-0.9,0.1-2.3,0.3-4.2,0.5c-1.9,0.2-3.8,0.5-5.8,0.7c-2,0.2-3.9,0.5-5.5,0.7c-1.7,0.2-2.7,0.3-3.3,0.3h-3
			c-2.4,0-4.9-0.1-7.4-0.3c-2.5-0.2-5-0.3-7.6-0.3c-1,0-1.9,0.1-2.8,0.3c-0.9,0.2-1.7,0.3-2.6,0.3c-3.2,0-6.5-0.1-9.7-0.4
			c-3.2-0.3-6.5-0.7-9.7-1.1c-0.1,0-0.5,0-1.2,0.1c-0.7,0.1-1.1,0-1.2-0.1c-0.2,0-0.6-0.2-1.1-0.7c-0.5-0.5-0.8-0.7-0.9-0.7
			c-0.3-0.2-0.8-0.5-1.6-0.9c-0.8-0.3-1.1-0.7-1.1-1.2l-0.2-54.7V85.2z M474.5,151.6c0.5,0,0.9,0,1.2,0.1c0.3,0.1,0.7,0.3,1.2,0.6
			l-9.7,11.2h-3.9l10.4-11.9H474.5z M485.4,152.3v0.9l-8.5,9.5c-0.5,0.6-1,0.9-1.6,0.9c-0.6,0-1.1,0-1.6,0h-2l9.7-11.2H485.4z
			 M493.7,153.2l-8.3,9.5c-0.1,0.1-0.7,0.3-1.7,0.7c-1,0.3-1.8,0.6-2.3,0.9h-0.6h-0.8l9.7-11H493.7z M500.2,151.6
			c0.2,0,0.6,0.1,1.3,0.2c0.7,0.1,1.1,0.3,1.3,0.5l-9.7,11.2h-3.8l9.7-11.2c0.1-0.2,0.3-0.4,0.6-0.5
			C499.9,151.7,500.1,151.6,500.2,151.6z M504.7,36.7h3.9L499,47.9h-3.3V47L504.7,36.7z M499.7,36.7l-3.3,3.6c0-0.1,0-0.3-0.1-0.5
			c-0.1-0.2-0.1-0.4-0.1-0.5c0-0.9,0.1-1.6,0.4-2c0.3-0.4,0.8-0.6,1.7-0.6H499.7z M508.7,86.7c-0.3,0.3-0.9,1-1.7,1.9
			c-0.8,0.9-1.7,1.9-2.6,2.9c-0.9,1-1.8,2-2.6,2.8c-0.8,0.9-1.4,1.5-1.7,1.8c-0.9,1.3-2.1,1.9-3.5,1.9c0-0.6,0-1.2,0.1-2
			c0-0.7,0.3-1.4,0.8-2c0.4-0.6,1-1.3,1.7-2.2c0.8-0.9,1.5-1.7,2.1-2.4c0.7-0.7,1.5-1.7,2.6-2.8H508.7z M499.7,86.7l-2.1,2.2v-2.2
			H499.7z M511.8,152.3l-10.3,11.9h-3.9l10.4-11.9H511.8z M517.1,85.9v0.9l-9.7,11h-3.9l9.7-11L517.1,85.9z M513.2,36.7
			c0.4-0.6,0.9-0.8,1.4-0.8c0.5,0.1,1,0.1,1.5,0.1h1.7l-0.6,1.5l-8.5,9.5c0,0.1-0.4,0.3-1.3,0.4c-0.9,0.2-1.5,0.3-1.9,0.4h-1.4V47
			L513.2,36.7z M520.5,152.3v0.9l-8.6,9.5c-0.5,0.6-1,0.9-1.6,0.9c-0.6,0-1.1,0-1.6,0h-2l9.7-11.2H520.5z M526.8,36l-9.7,11
			c-0.3,0.3-0.9,0.6-1.7,0.7c-0.8,0.1-1.5,0.2-2,0.2h-1.1L522.9,36H526.8z M522.3,85.9h3.9l-9.8,11.4c-0.3,0.2-0.9,0.4-1.9,0.6
			c-1,0.2-1.6,0.3-2,0.3v-0.9L522.3,85.9z M530.6,150.9l-9.7,11l-4.5,0.7l9.8-11c0.3-0.3,0.8-0.5,1.6-0.6c0.8-0.1,1.4-0.1,1.9-0.1
			H530.6z"/>
		<path class="st0" d="M561.6,13.1l-9.7,11.2v-1c0-1,0.2-2.1,0.6-3.1c0.4-1,0.9-1.9,1.4-2.8c0.3-0.3,0.8-0.9,1.6-1.7
			c0.8-0.8,1.5-1.7,2.3-2.6c0.8-0.9,1.6-1.8,2.3-2.7c0.7-0.9,1.2-1.5,1.5-1.8V13.1z M561.6,18.3h1.2c0,1.4-0.1,2.5-0.2,3.3
			c-0.2,0.8-0.6,1.7-1.4,2.8c-0.6,0.7-1.4,1.6-2.3,2.7c-1,1.1-1.9,2.2-2.8,3.2c-0.9,1-1.7,1.9-2.3,2.6c-0.7,0.7-1,1-1.1,1h-0.6v-4.5
			L561.6,18.3z M562.5,27.7v4.5l-10,11.2v-4.6L562.5,27.7z M562.5,37.5v4.3l-10,11v-4.3L562.5,37.5z M552.5,58.9L563,47v4.3l-9.7,11
			c-0.5-0.1-0.8-0.5-0.8-1c0-0.6,0-1,0-1.4V58.9z M563,56.6v2.2c0,0.6,0,1.2,0.1,1.8c0.1,0.6-0.1,1.2-0.5,1.6l-8.6,9.8h-0.6v-4.5
			L563,56.6z M563.6,66.1v4.5l-9.7,11h-0.6V78L563.6,66.1z M553.7,97.8c0-0.1,0-0.3,0.2-0.5l10.4-12v4.5l-9.8,11
			c-0.4-0.1-0.6-0.5-0.7-1c-0.1-0.6-0.1-1-0.1-1.4V97.8z M563.6,75.7v4.5l-9.7,11v-4.5L563.6,75.7z M564.3,119.3l-9.8,11v-1.9
			c0-0.6,0-1.1,0-1.7c0-0.6,0.3-1.1,0.8-1.5l9.1-10.3V119.3z M564.3,125.1v4.5l-9.8,11v-4.5L564.3,125.1z M564.3,134.6h0.8
			c0,0.6,0,1.4,0,2.6c0,1.1-0.3,2.1-0.8,2.8l-9.8,11v-5.3L564.3,134.6z M554.5,155.9l9.8-11c0.2,0.2,0.5,0.6,0.8,1.1
			c0.3,0.5,0.5,0.9,0.5,1.1v0.2c0,0.1,0,0.2,0.1,0.2c0.1,0,0.1,0.1,0.1,0.2l-0.2,0.2l-10.3,11.9c-0.5-0.1-0.8-0.5-0.8-1.1
			c0-0.6,0-1.1,0-1.3V155.9z M564.9,94.1v2.1c0,0.7,0,1.3,0,2c0,0.6-0.2,1.2-0.6,1.8l-8.5,9.8h-0.6v-4.6L564.9,94.1z M564.9,104.5
			v4.3l-9.7,11v-4.3L564.9,104.5z M558.4,161.2l10.4-11.9h0.3h0.3c0.2,0.1,0.4,0.3,0.7,0.7c0.2,0.3,0.5,0.6,0.7,0.9v0.2v0.5l-9.7,11
			c-0.1,0.1-0.3,0.2-0.5,0.2h-0.6c-0.3,0-0.7-0.1-1.1-0.3c-0.4-0.2-0.6-0.5-0.6-1.1V161.2z M567.4,85.2c-0.1-1.6-0.2-4.1-0.4-7.4
			c-0.2-3.3-0.3-7.1-0.5-11.3c-0.2-4.2-0.3-8.6-0.5-13.2c-0.2-4.6-0.4-9.1-0.5-13.3c-0.2-4.2-0.3-8-0.4-11.4
			c-0.1-3.3-0.2-5.8-0.2-7.4v-7.1V7.3c0-0.9,0.3-1.7,0.8-2.5c0.6-0.7,1.1-1.3,1.7-1.8H578c0.1,0,0.5-0.1,1.2-0.2
			c0.7-0.1,1.5-0.2,2.3-0.3c0.8-0.1,1.6-0.1,2.3-0.3c0.7-0.1,1.2-0.2,1.4-0.2h17.2H618c0.6,0,1.7,0.1,3.3,0.2
			c1.6,0.1,3.3,0.3,5.1,0.4c1.8,0.2,3.5,0.3,5.1,0.5c1.6,0.2,2.6,0.3,3.3,0.4c0.2,0,0.5,0.1,0.8,0.2c0.3,0.1,0.5,0.2,0.6,0.3
			c0.3,0.6,0.7,1.4,1.2,2.6c0.5,1.1,0.8,1.8,0.8,1.9v20.1c0,0.7-0.5,1.4-1.6,2.2c-1.1,0.8-1.8,1.2-2.3,1.2l-35.5,1.5
			c-0.3,0-0.7,0.1-1.2,0.3c-0.5,0.2-0.8,0.3-0.8,0.4c-0.1,0.1-0.2,0.6-0.4,1.5c-0.2,0.9-0.3,1.7-0.4,2.2c0,0.3-0.1,0.8-0.2,1.4
			c-0.1,0.6-0.2,1.2-0.2,1.8c-0.1,0.6-0.1,1.2-0.2,1.7c-0.1,0.5-0.1,0.8-0.1,0.9v4.8v3.3l2.6,1.2h25.3l11,2.4c0.8,0.2,1.5,1.2,2,2.8
			c0.5,1.7,0.9,3.5,1.2,5.5c0.3,2,0.5,4,0.6,5.9c0.1,1.9,0.2,3.1,0.2,3.7c0,2.6-0.5,4.6-1.5,5.9c-1,1.3-2.3,2.2-3.9,2.7
			c-1.6,0.5-3.4,0.8-5.3,0.8c-1.9,0-3.8,0.1-5.6,0.2c-0.9,0-2.5,0.1-4.8,0.2c-2.3,0.1-4.8,0.2-7.4,0.3c-2.6,0.1-5.1,0.1-7.4,0.2
			c-2.3,0.1-3.9,0.1-4.8,0.1c0,0.3-0.1,1-0.2,2c-0.1,1-0.2,2-0.2,3.1c-0.1,1.1-0.1,2.2-0.2,3.2c-0.1,1-0.1,1.7-0.1,2.1
			c0,0.2,0,1.2-0.1,2.8c-0.1,1.7-0.1,3-0.1,3.9c0,0.5,0,1,0,1.7s0,1.4,0.1,2.1c0.1,0.7,0.1,1.5,0.1,2.6c0,0.6,0.1,1.6,0.2,3.1
			c0.2,1.5,0.3,2.5,0.4,2.9c0.1,0.7,0.3,1.4,0.5,2.1c0.2,0.7,0.7,1,1.5,1h39.5c0.2,0,0.8,0.1,1.7,0.3c0.9,0.2,1.5,0.5,1.7,1.1v7.1
			v7.1c0,0.5,0,1.3-0.1,2.5c-0.1,1.2-0.1,2.5-0.2,3.8c-0.1,1.3-0.2,2.6-0.2,3.8c-0.1,1.2-0.1,2-0.1,2.5c-0.6,1.3-1.4,2-2.3,2.2
			c-0.9,0.2-1.9,0.4-3,0.5c-0.9,0.1-2.3,0.3-4.2,0.5c-1.9,0.2-3.8,0.5-5.8,0.7c-2,0.2-3.9,0.5-5.5,0.7c-1.7,0.2-2.7,0.3-3.3,0.3h-3
			c-2.4,0-4.9-0.1-7.4-0.3c-2.5-0.2-5-0.3-7.6-0.3c-1,0-1.9,0.1-2.8,0.3c-0.9,0.2-1.7,0.3-2.6,0.3c-3.2,0-6.5-0.1-9.7-0.4
			c-3.2-0.3-6.5-0.7-9.7-1.1c-0.1,0-0.5,0-1.2,0.1c-0.7,0.1-1.1,0-1.2-0.1c-0.2,0-0.6-0.2-1.1-0.7c-0.5-0.5-0.8-0.7-0.9-0.7
			c-0.3-0.2-0.8-0.5-1.6-0.9c-0.8-0.3-1.1-0.7-1.1-1.2l-0.2-54.7V85.2z M576.7,151.6c0.5,0,0.9,0,1.2,0.1c0.3,0.1,0.7,0.3,1.2,0.6
			l-9.7,11.2h-3.9l10.4-11.9H576.7z M587.6,152.3v0.9l-8.5,9.5c-0.5,0.6-1,0.9-1.6,0.9c-0.6,0-1.1,0-1.6,0h-2l9.7-11.2H587.6z
			 M596,153.2l-8.3,9.5c-0.1,0.1-0.7,0.3-1.7,0.7c-1,0.3-1.8,0.6-2.3,0.9h-0.6h-0.8l9.7-11H596z M602.5,151.6c0.2,0,0.6,0.1,1.3,0.2
			c0.7,0.1,1.1,0.3,1.3,0.5l-9.7,11.2h-3.8l9.7-11.2c0.1-0.2,0.3-0.4,0.6-0.5C602.2,151.7,602.4,151.6,602.5,151.6z M607,36.7h3.9
			l-9.7,11.2h-3.3V47L607,36.7z M602,36.7l-3.3,3.6c0-0.1,0-0.3-0.1-0.5c-0.1-0.2-0.1-0.4-0.1-0.5c0-0.9,0.1-1.6,0.4-2
			c0.3-0.4,0.8-0.6,1.7-0.6H602z M610.9,86.7c-0.3,0.3-0.9,1-1.7,1.9c-0.8,0.9-1.7,1.9-2.6,2.9c-0.9,1-1.8,2-2.6,2.8
			c-0.8,0.9-1.4,1.5-1.7,1.8c-0.9,1.3-2.1,1.9-3.5,1.9c0-0.6,0-1.2,0.1-2c0-0.7,0.3-1.4,0.8-2c0.4-0.6,1-1.3,1.7-2.2
			c0.8-0.9,1.5-1.7,2.1-2.4c0.7-0.7,1.5-1.7,2.6-2.8H610.9z M602,86.7l-2.1,2.2v-2.2H602z M614.1,152.3l-10.3,11.9h-3.9l10.4-11.9
			H614.1z M619.4,85.9v0.9l-9.7,11h-3.9l9.7-11L619.4,85.9z M615.5,36.7c0.4-0.6,0.9-0.8,1.4-0.8c0.5,0.1,1,0.1,1.5,0.1h1.7
			l-0.6,1.5l-8.5,9.5c0,0.1-0.4,0.3-1.3,0.4c-0.9,0.2-1.5,0.3-1.9,0.4h-1.4V47L615.5,36.7z M622.7,152.3v0.9l-8.6,9.5
			c-0.5,0.6-1,0.9-1.6,0.9c-0.6,0-1.1,0-1.6,0h-2l9.7-11.2H622.7z M629.1,36l-9.7,11c-0.3,0.3-0.9,0.6-1.7,0.7
			c-0.8,0.1-1.5,0.2-2,0.2h-1.1L625.2,36H629.1z M624.5,85.9h3.9l-9.8,11.4c-0.3,0.2-0.9,0.4-1.9,0.6c-1,0.2-1.6,0.3-2,0.3v-0.9
			L624.5,85.9z M632.9,150.9l-9.7,11l-4.5,0.7l9.8-11c0.3-0.3,0.8-0.5,1.6-0.6c0.8-0.1,1.4-0.1,1.9-0.1H632.9z"/>
	</g>
	<g>
		<path class="st0" d="M157.2,248.2c0,1.2,0,1.9-0.1,2.3c-0.1,0.4-0.5,1.1-1.5,2.2l-8.8,8.8l-1.6,0.7v-1.6c0-0.5,0-1.1,0.1-1.9
			c0.1-0.8,0.2-1.4,0.4-1.7l11.4-11.2V248.2z M157.2,256.1v4.5l-11.4,11.2v-4.7L157.2,256.1z M157.9,264.9c0.1,0.2,0.2,0.7,0.3,1.6
			c0.1,0.8,0.2,1.3,0.2,1.6v0.5v0.2l-11.5,11.9v-4.3L157.9,264.9z M158.4,234.7c0,0.3-0.1,1-0.2,2c-0.1,1-0.2,1.6-0.3,1.8
			c-0.1,0.2-0.3,0.7-0.5,1.4c-0.1,0.3-0.2,0.6-0.2,0.9l-9.8,9.7v-0.9c0-0.7,0.1-1.6,0.3-2.7c0.2-1.1,0.6-1.9,1.2-2.5L158.4,234.7z
			 M148.1,285l11.2-11h0.7v3.4l-11,11c-0.5-0.5-0.7-0.9-0.8-1.2c-0.1-0.3-0.1-0.8-0.1-1.4V285z M149.6,293.1l11-11.2h0.5h0.3
			c0,0.1,0.1,0.5,0.3,1c0.2,0.6,0.3,1,0.4,1.2v0.3v0.5l-0.3,0.7l-0.3,0.7l-9.7,9.7l-1.6,0.7c-0.5-1-0.7-2.1-0.7-3.1V293.1z
			 M151.9,301.1l11.7-11.7l0.9,3.8l-11.9,11.7c-0.3-0.5-0.5-0.9-0.6-1.3c-0.1-0.4-0.1-0.8-0.1-1.3V301.1z M162.9,220.8
			c0,0.2-0.1,0.6-0.3,1.1c-0.2,0.5-0.3,0.9-0.4,1.1c-0.2,0.5-0.5,1.2-0.9,2.2c-0.3,1-0.6,1.5-0.7,1.6l-8.1,7.9
			c1.6-2.6,3.2-5.1,4.7-7.5C158.7,224.9,160.6,222.7,162.9,220.8z M154.1,308.7l11-11l0.3-0.2c0.6,0,0.9,0.3,1,0.9
			c0.1,0.6,0.2,1.1,0.2,1.5v0.5l-11.9,11.7c-0.5-0.9-0.7-2-0.7-3.1V308.7z M168.9,304.2c0.9,0.5,1.4,1.2,1.4,2.2v0.7l-11,11
			l-0.3,0.2l-0.5-0.2l-0.3-0.3c-0.1-0.1-0.2-0.2-0.2-0.3c-0.2-0.2-0.5-0.5-0.7-0.9c-0.2-0.3-0.2-0.6,0-0.7L168.9,304.2z M160,246.8
			c0-3.3,0.4-6.5,1.2-9.4c0.8-2.9,1.7-6,2.6-9.2c0.3-1.5,0.8-2.9,1.5-4.1c0.6-1.3,1.3-2.6,2.2-4.1c0.1-0.2,0.4-0.7,0.8-1.4
			c0.4-0.7,0.8-1.4,1.3-2.2c0.5-0.8,0.9-1.6,1.3-2.2c0.4-0.7,0.7-1.1,0.9-1.4c1.4-2,3-3.9,5-5.9c2-2,3.7-3.7,5.3-5.2
			c3.7-3.4,7.4-6,11.1-7.8c3.7-1.7,7.9-3.6,12.5-5.5c4.9-2.1,9.5-3.4,13.7-3.9c4.2-0.5,9-0.8,14.4-0.8c0.8,0,1.8,0,3.1,0.1
			c1.3,0.1,2.5,0.1,3.8,0.1c1.3,0,2.4,0,3.4,0.1c1,0.1,1.5,0.1,1.6,0.1c1.5,0,3,0.1,4.5,0.4c1.5,0.3,2.9,0.5,4.3,0.8
			c0.8,0.2,2,0.4,3.5,0.5c1.6,0.1,2.8,0.5,3.7,1c0.3,0.1,0.9,0.4,1.7,0.9c0.8,0.5,1.7,1,2.7,1.6c1,0.6,1.9,1.1,2.8,1.6
			c0.9,0.5,1.5,0.9,2,1.1c0.6,0.3,0.8,0.7,0.8,1c-0.1,0.3-0.1,0.9-0.1,1.6v1.7c0,0.2-0.1,0.5-0.3,0.9c-0.2,0.3-0.3,0.6-0.4,0.7
			c-0.2,0.2-0.6,0.7-1.1,1.3c-0.5,0.6-1.1,1.3-1.6,2.1c-0.6,0.7-1.1,1.5-1.6,2.2c-0.5,0.7-0.8,1.1-0.9,1.2c-0.5,0.7-1,1.5-1.6,2.5
			c-0.6,1-1.3,2-2.1,2.9c-0.7,1-1.6,1.8-2.4,2.5c-0.9,0.7-1.8,1-2.8,1c-3.2,0-6.4-0.4-9.7-1.2c-3.2-0.8-6.5-1.2-9.8-1.2h-4
			c-0.2,0-0.9,0.1-1.9,0.3c-1,0.2-1.7,0.4-1.9,0.5c-3.7,0.6-7.3,1.3-10.8,2.2c-3.5,0.9-6.8,2.6-9.7,5.1c-2.4,2-4.5,4-6.3,6.3
			c-1.8,2.2-3.6,4.6-5.6,7c-1.2,1.5-2,3.2-2.6,5.1c-0.6,1.9-1,3.6-1.2,5.3c0,0.2,0,0.6,0.1,1.2c0.1,0.6,0.1,1.2,0.1,1.8
			c0,0.6,0,1.3,0,1.9c0,0.6-0.1,1-0.2,1.1c0,0.1-0.1,0.4-0.2,0.8c-0.1,0.4-0.3,0.7-0.5,0.8v6.2c0,8.2,1.5,15.2,4.4,21
			c2.9,5.9,7.4,11.5,13.4,16.9c1.8,1.6,3.9,2.9,6.1,3.9c2.2,1,4.5,1.7,6.9,2.2c2.4,0.5,4.8,0.9,7.2,1c2.5,0.2,4.9,0.3,7.2,0.3h7.4
			c1-0.2,2.3-0.6,3.7-1c1.4-0.5,2.6-0.8,3.5-1c0.1-0.1,0.5-0.3,1.1-0.6c0.6-0.3,1.3-0.6,1.9-0.9c0.6-0.3,1.2-0.7,1.8-0.9
			c0.6-0.3,1-0.5,1.2-0.6c0.1,0,0.5-0.1,1-0.3c0.6-0.2,1-0.3,1.2-0.3h0.2c1,0,2,0.3,2.8,0.9c0.9,0.6,1.7,1.3,2.4,2.2
			c0.7,0.9,1.4,1.8,2,2.7c0.6,0.9,1,1.7,1.4,2.4c0.2,0.5,0.7,1.3,1.3,2.4c0.6,1.1,1.3,2.4,2,3.8c0.7,1.4,1.3,2.7,2,3.9
			c0.6,1.2,1.1,2,1.3,2.5v1.4c0,1.4-0.4,2.2-1.2,2.6c-0.8,0.3-1.8,0.9-3.1,1.7c-0.1,0.1-0.4,0.3-0.9,0.6c-0.5,0.3-0.9,0.6-1.4,0.9
			c-0.5,0.3-0.9,0.7-1.4,0.9c-0.5,0.3-0.7,0.5-0.9,0.6c-1.7,1-3.6,1.8-5.8,2.4c-2.1,0.6-4.2,1-6.1,1.2c-0.8,0.1-2,0.3-3.6,0.4
			c-1.6,0.2-3.3,0.3-5,0.5c-1.7,0.2-3.3,0.3-4.7,0.4c-1.4,0.1-2.3,0.2-2.7,0.2h-6.7h-7.4c-0.6,0-1.5,0-2.7-0.1
			c-1.2-0.1-2.5-0.1-3.8-0.3c-1.3-0.1-2.6-0.2-3.7-0.3c-1.1-0.1-2-0.1-2.4-0.1c-1.4-0.2-2.9-0.6-4.6-1.2c-1.7-0.6-3.1-1.2-4.4-1.9
			c-2.9-1.3-5.5-2.5-8-3.7c-2.5-1.2-4.9-2.6-7.3-4.2c-0.2-0.2-0.8-0.7-1.7-1.4c-0.5-0.3-0.9-0.6-1.2-0.9c-0.2-0.2-0.7-0.7-1.3-1.3
			c-0.6-0.6-1.3-1.3-2-2c-0.7-0.7-1.4-1.4-2-2.1c-0.6-0.7-1.1-1.2-1.3-1.6c-2.6-2.5-4.9-5.3-6.9-8.4c-2-3-3.4-6.3-4.3-9.9
			c-0.3-1.4-0.8-3.4-1.5-5.9c-0.6-2.6-1.2-5.2-1.8-7.8c-0.6-2.6-1.1-5.1-1.6-7.2c-0.5-2.2-0.8-3.6-0.9-4.1c-0.6-3.2-1-6.5-1.2-9.7
			C160.1,253.4,160,250.1,160,246.8z M161.5,321.2l11.7-11.9c0.7,0.2,1.1,0.6,1.3,1c0.2,0.5,0.3,1,0.3,1.6v1l-11,11
			c-0.2-0.1-0.6-0.4-1.1-0.9c-0.5-0.5-0.9-0.9-1.1-1.1c-0.1,0-0.2-0.1-0.2-0.2v-0.3L161.5,321.2z M178.6,314.5
			c1,0.6,1.6,1.3,1.6,2.2c0,0.1,0,0.2-0.1,0.2c-0.1,0-0.1,0.1-0.1,0.2v0.3l-11.7,11.7l-2.2-2.2L178.6,314.5z M182.9,319.7h0.3h0.3
			c0.2,0.1,0.5,0.3,0.9,0.7s0.6,0.6,0.7,0.9v0.2v0.5l-11.9,11.5l-2.2-2.1L182.9,319.7z M188.7,324h0.7c0.9,0,1.7,0.5,2.4,1.6
			l-11.9,11.7l-2.9-1.2L188.7,324z M195.3,326.9l3.6,1.7L188,339.5c-0.1,0.1-0.3,0.3-0.7,0.4c-0.3,0.2-0.6,0.3-0.9,0.4h-0.2
			c-1.3,0-2.2-0.5-2.8-1.6L195.3,326.9z M191,341.7l11.2-11h0.9c0.6,0,1,0,1.4,0.1c0.3,0.1,0.7,0.3,1.2,0.6l-11.7,11.9h-0.5
			c-0.6,0-1.1-0.1-1.6-0.2c-0.5-0.1-0.8-0.5-0.8-1V341.7z M209.4,333h0.7c0.8,0,1.8,0.2,3.1,0.5l-11.9,12.1l-3.8-0.7L209.4,333z
			 M220.4,217.1l-10.3,10.3c-0.7,0-1.3,0.1-1.7,0.2c-0.6,0.1-1.1,0.2-1.6,0.3c-0.5,0.1-0.9,0.1-1.2,0.3h-0.2h-0.5l8.3-8.3
			c0.8-0.6,1.8-1.2,3-1.8c1.2-0.6,2.4-0.9,3.5-0.9H220.4z M223.6,333.5l-11.9,12.1h-4.5l11.7-12.1H223.6z M232.3,214.9
			c-0.1,0.1-0.3,0.3-0.4,0.7c-0.2,0.3-0.3,0.6-0.4,0.9c-0.2,0.2-0.7,0.7-1.4,1.4c-0.7,0.7-1.4,1.4-2.2,2.2c-0.7,0.8-1.5,1.6-2.2,2.2
			c-0.7,0.7-1.2,1.1-1.5,1.4c-1.6,1.6-3.4,2.4-5.5,2.4c-0.2,0-0.6,0-1-0.1c-0.5-0.1-0.8-0.1-1-0.1l10.3-10.3c0.3-0.3,1-0.5,1.9-0.6
			c0.9-0.1,1.7-0.1,2.4-0.1H232.3z M232.3,334.5c-0.1,0.1-0.3,0.3-0.4,0.7c-0.2,0.3-0.3,0.6-0.4,0.9l-7.2,7.2
			c-0.3,0.3-0.9,0.8-1.7,1.4c-0.8,0.6-1.3,0.9-1.4,0.9c-0.2,0.1-0.5,0.2-0.9,0.2h-1.4c-0.1,0-0.5,0-1-0.1c-0.6-0.1-1-0.1-1.2-0.1
			l11.4-11H232.3z M240.1,214c0.3,0,0.8,0,1.4,0c0.6,0,0.9,0.3,1,0.9l-11,11H227l12.1-11.7h0.5c0.1,0,0.2,0,0.3-0.1
			C239.9,214.1,240,214,240.1,214z M243.4,333.5l-11,11.4H228l11-11.4H243.4z M247.2,215.6h1c0.3,0,0.8,0,1.4,0c0.6,0,0.9,0.3,1,0.9
			l-11.5,11.7l-3.6-1L247.2,215.6z M253.7,333l-10.3,10.3c-0.6,0.5-1.1,0.7-1.6,0.8c-0.5,0.1-1.1,0.1-1.6,0.1c-0.2,0-0.6,0-1-0.1
			c-0.5-0.1-0.8-0.1-1-0.1l10.5-10.5c0.6-0.5,1.1-0.7,1.6-0.6c0.5,0.1,1.1,0.1,1.6,0.1H253.7z M267,329.2c-1.7,2.1-4.1,4.3-7.1,6.7
			c-3,2.4-5.7,4.1-8.3,5.2l9.5-9.7L267,329.2z"/>
		<path class="st0" d="M283,248l-11,11v-1.4c0-0.6,0-1.2,0.1-2c0.1-0.7,0.2-1.3,0.4-1.8l10.5-10.3V248z M283,253.8
			c0.2,0.6,0.4,1.1,0.6,1.6c0.2,0.5,0.3,1,0.3,1.6v0.7l-11.4,11H272v-3.8L283,253.8z M283.9,262.8v2.1c0,1.3,0,2.1-0.1,2.5
			c-0.1,0.4-0.5,1.1-1.5,2c-0.7,0.7-1.6,1.5-2.6,2.5c-1,1-2,1.9-2.9,2.8c-1.2,1.2-2.2,2.3-3.3,3.4h-1v-4.3L283.9,262.8z
			 M283.9,237.6L273.5,248c0.2-1.1,0.5-2.4,0.9-3.9c0.4-1.4,1-2.6,1.8-3.4l8.8-9L283.9,237.6z M284.6,272.5v4.3L274,286.9h-0.5v-3.4
			L284.6,272.5z M285.9,280.4c0,0.1,0.1,0.3,0.3,0.4c0.2,0.2,0.3,0.3,0.3,0.4c0.2,0.2,0.4,0.6,0.6,1.2c0.2,0.6,0.2,0.9,0.1,1
			l-11.7,11.7c-0.1,0-0.3-0.1-0.4-0.3c-0.2-0.2-0.3-0.3-0.4-0.4c-0.1-0.2-0.2-0.5-0.2-0.7c0-0.2-0.1-0.5-0.2-0.7
			c-0.1-0.3-0.2-0.6-0.3-0.9L285.9,280.4z M288.2,288.5h0.3c0.6,0,0.9,0.3,1,0.9c0.1,0.6,0.2,1.1,0.2,1.6c0,0.1,0,0.2-0.1,0.3
			c-0.1,0.1-0.1,0.1-0.1,0.3v0.2l-11,11H278h-0.2c-0.3-0.3-0.7-0.8-1.1-1.4c-0.4-0.6-0.5-0.9-0.4-0.9L288.2,288.5z M279.9,306.4
			c0-0.1,0.1-0.2,0.2-0.2l11-11h0.3c0.6,0,0.9,0.3,1,0.9c0.1,0.6,0.2,1,0.2,1.4c0,0.8-0.3,1.5-0.9,2.1l-9.5,9.8h-0.9
			c-0.6,0-1-0.3-1.2-0.8c-0.2-0.5-0.3-1.1-0.3-1.6V306.4z M294,302.6l0.3-0.2l0.5,0.2c0.1,0,0.4,0.2,0.9,0.6
			c0.5,0.4,0.9,0.7,1.1,0.8l-11.9,11.9c0,0.1-0.1,0.2-0.2,0.2h-0.3c-1.2,0-1.9-0.6-2.2-1.7L294,302.6z M286.6,248.2
			c0-2.6,0.1-5.2,0.2-7.6c0.1-2.4,0.6-4.9,1.4-7.4c1.5-5.2,3.8-10.1,7-14.7c3.2-4.7,6.5-9.1,10.1-13.4c1.6-1.8,3.3-3.4,5-4.7
			c1.7-1.3,3.7-2.6,6-4.1c4.9-3.3,10.3-6.1,15.9-8.4c5.7-2.2,11.6-3.4,17.8-3.4c6.4,0,12.6,0.5,18.6,1.6c6,1,11.8,3.2,17.6,6.5
			c0.2,0.1,0.8,0.6,1.8,1.4c1,0.8,1.6,1.3,1.8,1.6c3.7,2.6,7.3,5.2,10.9,7.6c3.6,2.4,6.9,5.3,9.9,8.6c0,0.1,0.2,0.4,0.7,0.9
			c0.5,0.5,0.9,1.1,1.5,1.8c0.5,0.7,1.1,1.4,1.6,2.2c0.6,0.7,1,1.3,1.2,1.6c0.1,0.2,0.4,0.6,0.8,1.2c0.4,0.6,0.7,0.9,0.8,1
			c0.1,0.1,0.5,0.5,1.1,1.1c0.6,0.6,1,1.1,1.1,1.3c0.1,0.1,0.1,0.6,0.1,1.5c-0.1,0.9-0.1,1.4-0.1,1.5c0,0.2,0.2,0.9,0.7,2.2
			c0.5,1.2,0.7,1.9,0.9,2.2c0,0.1,0.1,0.4,0.2,0.9c0.1,0.5,0.3,1.1,0.4,1.6c0.2,0.6,0.3,1.1,0.5,1.6c0.2,0.5,0.3,0.8,0.3,0.9
			c0.1,0.2,0.4,0.7,0.8,1.6c0.4,0.8,0.6,1.3,0.6,1.6v3.4c0,0.2,0,0.6,0.1,1.1c0.1,0.5,0.1,1.1,0.3,1.6c0.1,0.6,0.2,1.1,0.3,1.6
			c0.1,0.5,0.1,0.8,0.1,0.9c0,0.1,0,0.6,0.1,1.5c0.1,0.9,0.1,1.8,0.1,2.9c0,1.1,0,2.2,0.1,3.3c0.1,1.1,0.1,2,0.1,2.7
			c0,4.6-0.2,9.6-0.5,15c-0.3,5.4-1.4,10.2-3.3,14.3c-0.2,0.3-0.5,0.9-0.9,1.6c-0.3,0.7-0.7,1.4-1,2.2c-0.3,0.8-0.7,1.6-1.1,2.2
			c-0.4,0.7-0.7,1.2-0.8,1.6c-0.1,0.2-0.4,0.6-0.8,1.1c-0.4,0.5-0.7,0.9-0.8,1.1c-2.6,3.2-5.5,6.4-8.5,9.5c-3,3.1-6.1,6.1-9,9
			c-2,1.8-4.3,3.4-6.9,4.8c-2.6,1.4-5.1,2.7-7.2,4c-3.6,2-7.7,3.2-12.5,3.7c-4.8,0.5-9,0.8-12.8,0.8c-7.4,0-14.4-0.9-21-2.6
			c-6.7-1.7-13-4.5-19.1-8.4c-0.5-0.2-1.1-0.6-1.8-1c-0.7-0.5-1.5-0.9-2.2-1.5c-0.7-0.5-1.3-0.9-1.8-1.3c-0.5-0.3-0.8-0.6-0.9-0.7
			c-0.1,0-0.7-0.5-1.8-1.5c-1.1-1-2.4-2.2-3.9-3.5c-1.5-1.4-3-2.8-4.6-4.1c-1.6-1.4-2.8-2.5-3.9-3.4c0.1,0,0-0.2-0.3-0.5l-0.3-0.3
			c-0.1-0.2-0.3-0.9-0.7-2.2c-0.3-1.2-0.6-1.9-0.7-2.2c-1.4-3.3-2.8-6.5-4.1-9.5c-1.4-3-2.5-6.3-3.3-9.8c-0.1-0.1-0.1-0.6-0.1-1.4
			c0.1-0.8,0.1-1.3,0.1-1.4c-0.5-4.2-0.8-8.4-1.1-12.5C286.8,256.6,286.6,252.4,286.6,248.2z M288,318.5c0-0.1,0.1-0.2,0.2-0.3
			l11.7-11.9l2.2,2.2l-11.7,11.9h-0.3h-0.5c-0.1-0.2-0.4-0.5-0.8-0.8c-0.4-0.3-0.6-0.5-0.6-0.8L288,318.5z M293.3,323.1l11.9-11.7
			l2.2,2.2l-11.9,11.7c0,0.1-0.1,0.2-0.2,0.2h-0.3l-0.2-0.2c-0.2,0-0.5-0.2-0.9-0.5c-0.3-0.3-0.6-0.6-0.7-0.9v-0.3V323.1z
			 M298.3,327.6l11.9-11.7c0.3,0,0.8,0.3,1.4,0.9c0.6,0.6,0.9,1,0.9,1.4c0,0.1-0.2,0.5-0.6,1c-0.4,0.6-0.7,1-0.9,1.2
			c-0.3,0.3-1,1-1.9,1.9c-0.9,0.9-1.9,1.9-2.8,2.9c-1,1-1.9,2-2.8,2.8c-0.9,0.9-1.6,1.5-1.9,1.8h-0.3c-0.6,0-1.2-0.2-1.8-0.5
			c-0.6-0.3-0.9-0.8-0.9-1.4V327.6z M316.3,320.4h0.2h0.5c0.2,0.1,0.6,0.3,1.1,0.7c0.5,0.3,0.8,0.6,0.9,0.9l-11.5,11.5
			c0,0.1-0.1,0.2-0.2,0.2c-0.1,0.1-0.2,0.2-0.3,0.2c-0.5,0-0.9-0.2-1.5-0.5c-0.5-0.3-0.9-0.8-1.1-1.4L316.3,320.4z M310.9,335l11-11
			h0.3c0.1,0,0.2,0,0.2-0.1c0-0.1,0.1-0.1,0.2-0.1c0.5,0,1,0.1,1.6,0.3c0.6,0.2,0.9,0.5,0.9,1.1v0.2l-11,11.2h-0.7
			c-0.5,0-1-0.1-1.6-0.2c-0.6-0.1-0.9-0.4-0.9-0.9V335z M318.5,268c0.1,0.2,0.3,0.6,0.7,1.1c0.3,0.5,0.5,0.9,0.5,1.1
			c0.2,0.1,0.4,0.5,0.5,1.1c0.1,0.6,0.2,1,0.3,1.1c0.1,0.2,0.4,0.8,0.8,1.7c0.4,0.9,0.8,1.9,1.3,3c0.5,1.1,0.9,2.2,1.4,3.2
			c0.5,1,0.8,1.8,1,2.2c1.6,3.8,3.4,6.8,5.5,9c2.1,2.2,4.4,3.8,7,4.8c2.6,1,5.5,1.7,8.6,2c3.2,0.3,6.6,0.4,10.4,0.4
			c6.7,0,12.7-1.1,18.2-3.2c5.5-2.1,10.3-5.9,14.6-11.5c0.1-0.2,0.3-0.6,0.7-1.2c0.3-0.6,0.5-0.9,0.5-1c1.4-3.6,2.1-7.2,2.2-10.8
			c0.1-3.6,0.2-7.3,0.2-11.1c0-0.3,0-1,0-1.9c0-0.9,0-1.9-0.1-2.9c-0.1-1-0.1-2-0.1-3c0-1,0-1.6,0-2c-0.2-1.4-0.6-3.3-1.2-5.9
			c-0.6-2.5-1.3-5.1-2.2-7.8c-0.9-2.7-2-5.2-3.1-7.5c-1.2-2.3-2.4-3.8-3.6-4.7c-0.1,0-0.5-0.1-1.2-0.3c-0.7-0.2-1-0.3-1-0.4
			c-0.1-0.1-0.3-0.5-0.7-1.1c-0.3-0.6-0.6-1-0.9-1.1c-0.1-0.2-0.3-0.5-0.7-0.9c-0.3-0.4-0.6-0.6-0.9-0.6c-3.2-2-6.8-3.4-10.6-4.4
			c-3.9-1-7.7-1.5-11.5-1.5c-5.2,0-10.1,0.7-14.6,2.2c-4.6,1.5-8.6,3.7-12.1,6.6c-3.5,2.9-6.3,6.5-8.4,10.8
			c-2.1,4.3-3.1,9.1-3.1,14.6c0,3.2,0.2,6.5,0.5,9.7C317.8,261.3,318.2,264.6,318.5,268z M329.5,326.9h0.2h0.3
			c0.2,0.1,0.5,0.2,0.7,0.2c0.2,0,0.5,0.1,0.7,0.2c0.3,0.1,0.6,0.2,0.9,0.3l0.3,0.3l-0.3,0.5l-11,11h-0.9c-0.6,0-1.1,0-1.5-0.1
			c-0.4-0.1-0.8-0.3-1.3-0.6L329.5,326.9z M336.8,329.2h0.3c0.6,0,1.2,0.1,1.8,0.2c0.6,0.1,0.9,0.6,0.9,1.4v0.7l-9.8,9.7
			c-0.3,0.5-1.2,0.7-2.4,0.7c-0.6,0-1,0-1.4-0.1c-0.3-0.1-0.7-0.3-1.2-0.6L336.8,329.2z M331.6,229.7c-0.1,0-0.3,0.1-0.7,0.3
			c-0.3,0.2-0.6,0.3-0.9,0.3c-0.1,0-0.6,0.1-1.6,0.3c-0.9,0.2-1.6,0.3-2.1,0.3h-0.3h-0.3c0.2-0.3,0.7-0.9,1.6-1.7
			c0.8-0.8,1.7-1.7,2.7-2.6c1-0.9,1.9-1.8,2.8-2.7c0.9-0.9,1.5-1.5,1.8-1.8c0.8-0.6,2-1.1,3.5-1.7c1.6-0.6,2.9-1,4.1-1.2
			L331.6,229.7z M344.9,331.4h4.5l-11.7,11.9h-1.4c-0.2,0-0.6,0-1.2,0c-0.6,0-1-0.3-1.2-0.9L344.9,331.4z M347.8,218.3
			c0.7-0.6,1.6-0.9,2.6-1c1-0.1,2-0.2,2.8-0.2h0.5l-11.5,11.5c-0.1,0.1-0.2,0.2-0.3,0.2c-0.1,0.1-0.4,0.2-0.9,0.2
			c-0.8,0-1.7-0.3-2.6-0.9L347.8,218.3z M353.7,331.9h4.5L346.4,344h-1c-0.5,0-0.9,0-1.3-0.1c-0.4-0.1-0.9-0.3-1.5-0.6L353.7,331.9z
			 M359,217.7h3.6v0.7l-11,11.4h-0.9c-0.6,0-1.1,0-1.6-0.1c-0.5-0.1-0.9-0.4-1.4-0.9L359,217.7z M369.2,331.4L359,341.7
			c-0.3,0.3-0.9,0.5-1.8,0.6c-0.9,0.1-1.6,0.1-2.3,0.1h-1.2l10.5-10.5c0.2-0.2,0.8-0.4,1.7-0.4c0.9-0.1,1.7-0.1,2.2-0.1H369.2z
			 M366.9,219.2h0.3c0.1,0,0.2,0,0.2-0.1c0-0.1,0.1-0.1,0.2-0.1c0.6,0,1.1,0.1,1.6,0.3c0.5,0.2,0.8,0.6,0.8,1.2v0.9l-9.7,9.5
			c-0.3,0.5-0.7,0.7-1.1,0.8c-0.4,0.1-0.8,0.1-1.3,0.1c-0.6,0-1,0-1.4-0.1c-0.3-0.1-0.8-0.3-1.4-0.8L366.9,219.2z M374.5,222.1
			c0.1,0.1,0.3,0.2,0.5,0.3l1,0.5l0.7,0.7v0.5v0.2l-12.1,11.9l-2.1-2.2L374.5,222.1z M381.8,328.5c-0.2,0.8-1,1.9-2.2,3.2
			c-1.3,1.3-2.8,2.6-4.5,3.9c-1.7,1.3-3.4,2.4-5.2,3.3c-1.7,0.9-3,1.4-4,1.4h-0.2l10.3-10.3c0.2-0.1,0.5-0.2,0.9-0.3
			c0.2-0.1,0.5-0.2,0.7-0.2c0.2,0,0.5-0.1,0.7-0.2c0.2-0.1,0.8-0.3,1.7-0.4C381,328.6,381.5,328.5,381.8,328.5z M378.8,227.5
			c0.2-0.2,0.5-0.4,0.9-0.6c0.3-0.2,0.6-0.3,0.7-0.3c0,0.1,0.2,0.3,0.6,0.7c0.4,0.3,0.7,0.6,0.8,0.9l0.2,0.3l-0.2,0.2L370,240.7
			l-2.2-2.2L378.8,227.5z M372.3,244.2l11.7-11.7c0.1,0,0.3,0.1,0.4,0.3c0.2,0.2,0.3,0.3,0.4,0.3c0,0.2,0.1,0.7,0.3,1.4
			c0.1,0.3,0.2,0.6,0.3,0.9l-11.7,11.9c-1-0.6-1.6-1.4-1.6-2.6V244.2z M375.2,251.1l11-11.4h0.3c0.6,0,0.9,0.3,1,0.9
			c0.1,0.6,0.2,1,0.2,1.4c0,0.5,0,0.9-0.1,1.2c-0.1,0.3-0.3,0.7-0.6,1l-9.8,9.7l-1.2,0.7c-0.6-0.8-0.9-1.8-0.9-3.1V251.1z
			 M377.3,259l12.1-11.7c0.1,0.2,0.2,0.7,0.3,1.5c0.1,0.7,0.2,1.2,0.2,1.5c0,0.1-0.1,0.3-0.2,0.7c-0.1,0.3-0.2,0.6-0.3,0.9l-11,11
			c-0.7-1.1-1-2.2-1-3.1V259z M388.3,277.5l0.3,0.7c0,0.8-0.4,1.9-1.2,3.3c-0.8,1.4-1.8,2.7-2.9,4.1c-1.2,1.3-2.3,2.5-3.4,3.4
			c-1.1,1-2.1,1.5-2.8,1.5v-2.6L388.3,277.5z M389.9,256.1v4.5l-11,11v-4.5L389.9,256.1z M389.9,266.4v1.9c0,0.6,0,1.1,0.1,1.7
			c0.1,0.6-0.1,1.1-0.6,1.6l-10.5,10.3v-4.5L389.9,266.4z"/>
		<path class="st0" d="M448.8,192.1c0,0.1,0.1,0.2,0.2,0.3c0,0.1,0.1,0.2,0.2,0.3c0,0.7-0.3,1.4-0.9,2.2l-9.8,9.7h-0.7v-1.6
			L448.8,192.1z M448.8,199.4v4.5l-11,11v-4.5L448.8,199.4z M448.8,209.2v4.3l-11,11v-4.3L448.8,209.2z M448.8,219.2h1v3.8
			l-12.1,11.9v-4.3L448.8,219.2z M449.8,228.3v2.2c0,1,0,1.8-0.1,2.2c-0.1,0.5-0.5,1.2-1.5,2.1c-0.3,0.3-1,1-2,1.9
			c-1,0.9-2,1.9-3,2.9c-1,1-2,2-2.9,2.8c-0.9,0.9-1.6,1.5-1.9,1.8v-5L449.8,228.3z M449.8,238.5v4.3l-11.4,11.4v-4.5L449.8,238.5z
			 M449.8,248.2v4.5l-11.4,11v-4.5L449.8,248.2z M449.8,258.5h0.5v3.6l-11,11.2h-0.9v-3.8L449.8,258.5z M449.8,313l-9.8,9.8
			l-1.6,0.7v-1.9c0-0.6,0-1.1,0-1.7c0-0.6,0.3-1.1,0.9-1.6l10.5-10.3V313z M449.8,318.3v4.5l-11.4,11v-4.5L449.8,318.3z
			 M438.5,338.8l11.4-11h0.2h0.3c0,0.1,0.1,0.5,0.3,1c0.2,0.6,0.3,1,0.3,1.2v0.5v0.2l-11.7,11.9c-0.6-1.2-0.9-2.2-0.9-3.1V338.8z
			 M450.4,267.3v2.2c0,0.7,0,1.4,0.1,2c0.1,0.6-0.1,1.2-0.6,1.8l-9.8,9.5h-0.7v-4.5L450.4,267.3z M450.4,277.8v4.3l-11,11v-4.3
			L450.4,277.8z M450.4,287.3v4.3l-11,11v-4.3L450.4,287.3z M450.4,297.6v1.7c0,0.7,0,1.3,0.1,1.8c0.1,0.5-0.1,1-0.6,1.5L439.3,313
			v-4.3L450.4,297.6z M459.3,333l-11,11.2c-0.2,0-0.9,0.1-1.9,0.2c-1,0.1-1.9,0.3-2.6,0.5h-0.5h-0.3l11.2-11L459.3,333z
			 M453.3,325.5c0.2-20.8,0.2-41.5-0.2-62.1c-0.3-20.6-0.5-41.4-0.5-62.5v-12.6l0.7-0.7h20c0.1,0,0.6,0,1.4-0.1
			c0.8-0.1,1.7-0.1,2.7-0.2c1-0.1,1.8-0.1,2.6-0.3c0.7-0.1,1.2-0.2,1.5-0.3h1.7c2,0,3.4,0.9,4.3,2.7c0.9,1.8,1.4,3.5,1.4,5.1v0.5
			c0,0.1-0.1,0.4-0.2,0.9c-0.1,0.5-0.2,1-0.3,1.6c-0.1,0.6-0.2,1.1-0.3,1.6c-0.1,0.5-0.1,0.8-0.1,0.9v7.6v7.2c0,0.8,0.1,2.4,0.2,4.9
			c0.1,2.5,0.3,5.4,0.4,8.8c0.2,3.4,0.3,7,0.5,10.7c0.2,3.7,0.3,7.3,0.5,10.7c0.2,3.4,0.3,6.3,0.4,8.8c0.1,2.5,0.2,4.1,0.2,4.9
			c0,0.3,0,1.7,0.1,4c0.1,2.3,0.1,5,0.1,8.1s0,6.2,0,9.3c0,3.1,0,5.6,0,7.4c0,1,0,2.9,0,5.7s0,5.7,0,8.7c0,3,0,5.9-0.1,8.7
			c-0.1,2.8-0.1,4.7-0.1,5.7c-0.6,1.8-1.5,3.3-2.7,4.3c-1.2,1-2.6,1.8-4.1,2.3c-1.6,0.5-3.2,0.9-5,1c-1.8,0.2-3.5,0.3-5.1,0.4
			c-0.3,0-1.2,0-2.6,0.1c-1.4,0.1-2.9,0.1-4.6,0.2c-1.7,0.1-3.3,0.1-4.8,0.3c-1.6,0.1-2.7,0.2-3.5,0.2h-1.6c-0.5,0-0.9,0-1.3,0
			c-0.4,0-0.7-0.2-0.8-0.7c-0.1-0.3-0.3-1-0.4-1.9C453.5,326.5,453.4,325.9,453.3,325.5z M464.3,333h4.5v0.9l-9.5,9.5
			c-0.7,0.6-1.6,1-2.8,1.3c-1.2,0.3-2.3,0.4-3.2,0.4v-0.9L464.3,333z M480,332.3l-10.3,10.3c-0.5,0.5-1.1,0.7-1.8,0.8
			c-0.7,0.1-1.4,0.1-2,0.1c-0.1,0-0.4,0-0.8-0.1c-0.4-0.1-0.7-0.1-0.8-0.1l11.2-11H480z"/>
		<path class="st0" d="M515.8,215.8l-11,11v-0.5v-0.2c0.2-0.8,0.4-1.8,0.5-2.8c0.1-1.1,0.2-1.7,0.2-1.8l11.2-11L515.8,215.8z
			 M515.8,271.1h0.9v3.6l-11.2,11h-0.7v-3.6L515.8,271.1z M516.7,191.3v3.8l-11.2,11v-3.8L516.7,191.3z M516.7,200.1
			c0.5,1.3,0.7,2.3,0.7,3.1c0,0.7-0.5,1.7-1.5,2.9c-1,1.3-2.1,2.6-3.4,3.9c-1.3,1.3-2.6,2.5-4,3.6c-1.3,1.1-2.3,1.8-3,2.2v-4.5
			L516.7,200.1z M516.7,220.2v4.3l-11.2,11v-4.3L516.7,220.2z M516.7,230.6v4.3l-11.2,11v-4.3L516.7,230.6z M516.7,240.1v2.2
			c0,1,0,1.8-0.1,2.2c-0.1,0.5-0.5,1.2-1.5,2.1c-0.2,0.3-0.7,0.9-1.4,1.6c-0.7,0.7-1.4,1.5-2.2,2.2c-0.8,0.7-1.6,1.5-2.2,2.2
			c-0.7,0.7-1.2,1.2-1.6,1.6c-0.1,0.1-0.5,0.3-1,0.7c-0.6,0.3-1,0.5-1.2,0.5v-4.3L516.7,240.1z M516.7,250.4v4.3l-11.2,11v-4.3
			L516.7,250.4z M516.7,259.9v4.5l-11.2,11.2v-4.5L516.7,259.9z M516.7,279.9v2.2c0,1.2,0,1.9-0.1,2.3c-0.1,0.4-0.5,1.1-1.5,2.2
			c-0.2,0.2-0.7,0.7-1.4,1.5c-0.7,0.7-1.4,1.5-2.2,2.2c-0.8,0.7-1.6,1.5-2.2,2.2c-0.7,0.7-1.2,1.2-1.6,1.4c-0.1,0.2-0.5,0.5-1,0.9
			c-0.6,0.3-1,0.6-1.2,0.7v-4.5L516.7,279.9z M505.5,301.4l11.9-12.1v4.5l-11,11c-0.6-0.1-0.9-0.5-0.9-1c0-0.6,0-1,0-1.4V301.4z
			 M506.2,331.7c0-0.5,0-0.9,0.1-1.3c0.1-0.4,0.3-0.8,0.8-1.1l11-11c0,0.1,0,0.5,0.1,1c0.1,0.6,0.1,1,0.1,1.2c0,0.6,0,1.2,0,1.8
			c0,0.6-0.3,1.2-0.9,1.6l-9.7,9.8h-0.2c-0.6,0-0.9-0.2-1.1-0.7C506.3,332.7,506.2,332.2,506.2,331.7z M517.4,299.2v4.3l-11,11v-4.3
			L517.4,299.2z M517.4,309.3v4.3l-11,11.4v-4.5L517.4,309.3z M518.1,328.5v4.5l-11,11.2v-4.5L518.1,328.5z M521.2,335h4.5
			l-12.1,12.1h-0.9c-0.6,0-1.1,0-1.5-0.1c-0.4-0.1-0.8-0.3-1.3-0.6L521.2,335z M521.9,331.6c-0.1-1.5-0.2-3.8-0.3-7
			c-0.1-3.2-0.3-6.7-0.4-10.6c-0.2-3.9-0.3-8-0.5-12.3c-0.2-4.3-0.3-8.4-0.4-12.3c-0.1-3.9-0.2-7.4-0.3-10.6c-0.1-3.2-0.2-5.5-0.2-7
			c0-0.3,0-1.8,0-4.3c0-2.5,0-5.4-0.1-8.6c-0.1-3.2-0.1-6.4-0.1-9.7c0-3.2,0-5.7,0-7.6c0-1.1,0-3.2,0-6c0-2.9,0-5.9,0.1-9.1
			c0.1-3.2,0.1-6.3,0.1-9.1c0-2.9,0-4.9,0-6c0.1-0.5,0.3-1.4,0.4-2.9c0.2-1.5,0.3-2.5,0.3-2.9c0-0.7,0-1.9,0.1-3.5
			c0.1-1.7,0.1-3.4,0.1-5.3c0-1.9,0-3.7-0.1-5.3c-0.1-1.7-0.1-2.8-0.1-3.5c1.1-0.5,2.1-0.7,2.8-0.8c0.7-0.1,1.6-0.1,2.6-0.1h2.8
			c0.8,0.1,2.2,0.2,4.3,0.3c2.1,0.1,4.2,0.1,6.5,0.3c2.2,0.1,4.4,0.2,6.4,0.3c2,0.1,3.4,0.1,4.2,0.1c1.5,1.3,2.9,2.8,4.2,4.7
			c1.3,1.9,2.5,3.9,3.6,6c1.1,2.1,2.2,4.3,3.2,6.4c1,2.1,2.1,4,3.1,5.6c0.1,0.3,0.5,1.1,1.2,2.2c0.7,1.1,1.4,2.2,2.2,3.4
			c0.7,1.2,1.4,2.4,2.1,3.4c0.6,1.1,1.1,1.8,1.3,2c0.1,0.2,0.4,0.7,0.8,1.6c0.4,0.8,0.8,1.7,1.3,2.7c0.5,1,0.9,1.9,1.3,2.7
			c0.4,0.8,0.7,1.3,0.9,1.4l3.6,3.6c0.1,0.2,0.3,0.7,0.7,1.6c0.3,0.8,0.6,1.3,0.9,1.4c0.1,0.2,0.4,0.7,0.9,1.3
			c0.5,0.6,1,1.3,1.6,2.1c0.6,0.7,1.2,1.4,1.7,2.1c0.5,0.6,0.8,1,0.9,1.1c0.2,0.2,0.5,0.6,0.8,1.2c0.3,0.6,0.5,0.9,0.6,1
			c0.1,0.2,0.4,0.8,0.9,1.7c0.5,0.9,1.1,1.9,1.7,2.9c0.6,1,1.2,2,1.6,2.8c0.5,0.9,0.8,1.4,1,1.6c0.1,0.1,0.5,0.5,1,1.3
			c0.6,0.7,1,1.2,1.2,1.5c0.6,0.7,1.1,1.1,1.5,1.2c0.4,0.1,0.8,0.5,1.3,1c0.2,0.2,0.6,0.9,1.2,1.9c0.6,1,0.9,1.7,1,1.9
			c0.1,0.1,0.6,0.6,1.4,1.4c0.8,0.8,1.3,1.3,1.6,1.4c0.1,0.2,0.4,0.6,0.9,1.2c0.5,0.6,0.9,1.2,1.5,1.8c0.5,0.6,1,1.3,1.5,1.9
			c0.5,0.6,0.7,1,0.9,1.1c0.1,0.1,0.3,0.4,0.6,0.8c0.3,0.4,0.5,0.7,0.6,0.8c0.2-0.5,0.4-1.4,0.5-2.9c0.1-1.5,0.2-2.5,0.3-3.1v-2.1
			c0-4.4-0.2-8.7-0.6-13c-0.4-4.3-0.9-8.6-1.5-12.8v-48.8c0-0.3,0.1-0.9,0.3-1.6c0.2-0.7,0.5-1.1,0.9-1.4c0.3,0,0.9,0,1.6,0
			c0.7,0,1.4,0,2.2-0.1c0.8-0.1,1.6-0.1,2.2-0.1c0.7,0,1.2,0,1.6,0c0.5,0,1.1,0,1.8,0c0.7,0,1.5,0,2.2,0.1c0.7,0.1,1.4,0.1,2.1,0.1
			c0.6,0,1,0,1.1,0c0.5,0,1.2,0,2.3,0.1c1.1,0.1,2.3,0.1,3.6,0.2c1.3,0.1,2.5,0.1,3.6,0.3c1.1,0.1,1.9,0.2,2.3,0.2
			c0.8,0.6,1.4,1.3,1.9,2.1c0.5,0.8,0.8,1.7,1,2.7c0.2,1,0.4,2,0.4,2.9c0.1,1,0.1,1.9,0.3,2.7c0.1,1.7,0.3,4.3,0.4,7.6
			c0.2,3.3,0.3,6.8,0.5,10.3c0.2,3.6,0.3,6.8,0.4,9.7c0.1,2.9,0.2,4.7,0.2,5.5c0,1.4,0,3.5,0.1,6.4c0.1,2.9,0.1,6.1,0.1,9.7
			c0,3.6,0,7.4,0,11.4c0,4,0,7.8,0,11.4c0,3.6,0,6.8-0.1,9.7c-0.1,2.9-0.1,5-0.1,6.4c0.5,3.2,0.7,6.1,0.8,8.6
			c0.1,2.5,0.1,5.5,0.1,8.8c0,0.6,0,1.4-0.1,2.3c-0.1,1-0.1,1.9-0.1,2.8c0,0.9,0,1.8-0.1,2.5c-0.1,0.7-0.1,1.2-0.1,1.3
			c0,0.6,0,1.6-0.1,3.1c-0.1,1.5-0.1,3.1-0.2,4.7c-0.1,1.7-0.1,3.2-0.2,4.7c-0.1,1.4-0.1,2.4-0.1,3c-0.7,0.1-2,0.3-3.9,0.4
			c-1.9,0.2-3.9,0.3-6.1,0.5c-2.2,0.2-4.2,0.3-6.1,0.4c-1.9,0.1-3.2,0.2-3.9,0.2h-4.8h-4.8c-1.2-0.3-2.1-1-2.9-2.1
			c-0.8-1-1.5-2-2.1-2.9c-3.8-6.2-7.6-12.4-11.4-18.5c-3.8-6.1-7.9-12-12.2-17.7c-0.3-0.3-1-1.1-1.9-2.2c-0.9-1.1-1.6-1.9-1.9-2.2
			c-0.2-0.2-0.7-0.7-1.4-1.6c-0.7-0.8-1.4-1.6-2.2-2.5c-0.8-0.9-1.6-1.7-2.3-2.5c-0.7-0.8-1.2-1.3-1.3-1.6c-0.2-0.2-0.6-0.8-1.2-1.7
			c-0.6-0.9-1.2-1.9-1.8-3c-0.6-1.1-1.3-2.1-1.9-3.1c-0.6-1-1-1.6-1.1-2c-0.1-0.2-0.6-0.9-1.4-2.2c-0.8-1.2-1.3-1.9-1.6-2.2
			c-0.2-0.3-0.7-1.2-1.5-2.5c-0.7-1.3-1.5-2.7-2.3-4.1c-0.8-1.4-1.6-2.8-2.3-4.1c-0.7-1.3-1.2-2.2-1.3-2.5c-0.1-0.1-0.4-0.5-0.8-1.1
			c-0.4-0.6-0.7-1-0.8-1.1c0,0.1-0.1,0.5-0.3,1.1c-0.2,0.6-0.3,1-0.3,1.1v0.7v0.9c0.3,7.9,0.6,15.8,0.7,23.6
			c0.1,7.8,0.4,15.7,0.9,23.6c0,0.2,0,0.8,0.1,1.6c0.1,0.9,0.1,1.8,0.3,2.8c0.1,1,0.2,1.9,0.3,2.8c0.1,0.9,0.1,1.4,0.1,1.6v19.1
			c0.6,1.1,0.9,2.4,0.9,3.8c0,0.2,0,0.4-0.1,0.4c-0.1,0.1-0.1,0.2-0.1,0.4v0.5c0,0.1-0.2,0.3-0.6,0.4c-0.4,0.2-0.7,0.3-0.8,0.4
			c-2.8,0.6-5.4,0.8-7.8,0.8c-2.5-0.1-5.1-0.1-8-0.1h-10.9c-0.3,0-1.2-0.1-2.5-0.3C523.1,331.8,522.2,331.7,521.9,331.6z
			 M535.1,336.1l-11,11h-4.5l11-11H535.1z M545.5,336.1c-0.3,0.3-1,1-1.9,1.9c-0.9,0.9-1.9,1.9-2.9,2.8c-1,1-2,1.9-3,2.8
			c-1,0.9-1.6,1.6-2,1.9c-0.9,0.9-1.6,1.4-1.9,1.6c-0.3,0.1-1.2,0.2-2.4,0.2c-0.1,0-0.5,0-1-0.1c-0.6-0.1-1-0.1-1.2-0.1l11.2-11
			H545.5z M551.3,335c-0.3,0.6-1,1.4-1.9,2.4c-0.9,1-2,2.1-3.1,3.2c-1.2,1.1-2.2,2.1-3.2,3c-1,0.9-1.7,1.6-2.2,1.9
			c-0.5,0.3-0.1-0.1,1-1.4c1.1-1.3,2.5-2.6,4-4.1c1.5-1.5,2.8-2.8,4.1-4C551.3,334.9,551.7,334.6,551.3,335z M556.5,259.9
			c0.1,0.2,0.3,0.6,0.7,1.1c0.3,0.5,0.6,0.9,0.9,1.1v0.3v0.5c-0.2,0.1-0.6,0.5-1.2,1c-0.6,0.6-0.9,1-1,1.2c0-0.2,0-0.6-0.1-1.2
			c-0.1-0.6-0.1-0.9-0.1-1c0-0.1,0-0.6-0.1-1.6C555.5,260.5,555.8,260,556.5,259.9z M555.7,271.4c0-0.1,0.1-0.2,0.2-0.3l4.5-4.7
			c0.9,0.6,1.4,1.4,1.4,2.4v0.7l-5.2,5.2c-0.6-0.7-0.9-1.6-0.9-2.8V271.4z M556.5,290l11.9-11.7c1,0.7,1.6,1.4,1.6,2.2
			c0,0.1,0,0.2-0.1,0.3c-0.1,0.1-0.1,0.1-0.1,0.3v0.2l-11.7,11.9c-0.6-0.3-1-0.7-1.4-0.9c-0.3-0.3-0.5-0.8-0.5-1.5L556.5,290z
			 M563.9,272.5h0.3c0.6,0,0.9,0.3,1,0.9c0.1,0.6,0.2,1,0.2,1.4c0,0.9-0.3,1.6-0.9,2.1c-0.5,0.6-1.1,1.3-1.9,2.2
			c-0.8,0.9-1.6,1.7-2.4,2.5c-0.8,0.8-1.8,1.8-3.1,2.9h-0.7v-4.5L563.9,272.5z M560.8,295.4l11.9-11.9h0.3h0.3
			c0.2,0.2,0.6,0.7,1,1.4c0.2,0.3,0.4,0.6,0.5,0.9l-11.9,11.9h-0.2h-0.5l-1.6-1.6v-0.2V295.4z M577.2,289.3h0.2h0.5
			c0.1,0.2,0.4,0.5,0.8,0.8c0.4,0.3,0.7,0.5,0.8,0.8v0.3v0.3l-11.9,11.9l-2.2-2.1L577.2,289.3z M569.8,306.4l11.9-11.7
			c1,0.5,1.6,1.2,1.6,2.2c0,0.8-0.5,1.8-1.6,2.9c-0.3,0.3-1,1-2,1.9c-1,0.9-2,1.9-3,2.9c-1,1-2,2-2.9,2.8c-0.9,0.9-1.6,1.5-1.9,1.8
			c-0.1-0.2-0.4-0.6-0.9-1.1c-0.5-0.5-0.9-0.9-1.1-1.1v-0.2V306.4z M574.1,312.4l11.9-12.1c0.2,0.2,0.5,0.6,0.9,1.2
			c0.3,0.6,0.6,0.9,0.7,1v0.5v0.3l-11.9,11.7c-1-0.3-1.6-1.1-1.6-2.2V312.4z M577.9,318.3l11.9-11.9c0.3,0.2,0.7,0.6,1,1.1
			c0.3,0.5,0.5,1,0.5,1.5l-0.2,0.3l-11.7,11.9c-1-0.6-1.6-1.5-1.6-2.8V318.3z M582.4,324l11-11h0.3c0.6,0,0.9,0.3,0.9,0.9
			c0.1,0.6,0.1,1.1,0.1,1.6v0.7l-11,11h-0.3c-0.5,0-0.7-0.3-0.9-0.9c-0.1-0.6-0.2-1.1-0.2-1.6V324z M586,330l11-11h0.5
			c0.3,0,0.7,0.3,1.1,0.9c0.4,0.6,0.6,1,0.6,1.4c0,0.1-0.1,0.3-0.2,0.7c-0.1,0.3-0.3,0.6-0.5,0.9l-9.7,9.5c-0.1,0.1-0.3,0.2-0.5,0.3
			c-0.5,0.2-0.7,0.3-0.9,0.3l-0.3,0.2c-0.6,0-0.9-0.3-1-0.9c-0.1-0.6-0.2-1.1-0.2-1.5V330z M589.6,336.9c0-0.1,0.1-0.2,0.2-0.3
			l11.7-11.5l1.6,2.8l-11.9,11.9h-0.3c-0.6,0-0.9-0.3-1-0.9c-0.1-0.6-0.2-1.1-0.2-1.6V336.9z M603.1,195.6c0,0.7,0,1.4,0,2
			c0,0.6-0.3,1.2-0.9,1.8l-8.8,8.8l-1.4,1c0-0.2,0-0.6-0.1-1c-0.1-0.5-0.1-0.8-0.1-1c0-0.6,0-1.1,0.1-1.6c0.1-0.5,0.3-1.1,0.8-1.6
			l10.3-10.3V195.6z M591.8,244.9c0-0.2,0.1-0.4,0.2-0.5l11-11v2.2c0,0.7,0,1.4,0,2c0,0.6-0.3,1.2-0.9,1.8l-8.8,8.8h-0.3
			c-0.6,0-0.9-0.3-1-0.9c-0.1-0.6-0.2-1.1-0.2-1.6V244.9z M603.1,203.9v4.3l-11,11v-4.3L603.1,203.9z M603.1,213.5v4.5l-11,11v-4.5
			L603.1,213.5z M603.1,223.7v4.7l-11,11v-4.5L603.1,223.7z M593.4,342.6l11.9-11.9c0.2,0.1,0.5,0.3,0.9,0.5c0.7,0.5,1.1,0.8,1.2,1
			v0.3v0.3l-11.9,11.9c-0.1-0.1-0.3-0.2-0.5-0.3l-0.7-0.3c-0.2-0.1-0.4-0.3-0.5-0.4c-0.1-0.2-0.2-0.3-0.3-0.4v-0.3V342.6z
			 M594.8,251.9l9-9.1c0.5,0.5,0.7,0.9,0.8,1.4c0.1,0.5,0.1,1,0.1,1.6v0.9l-8.3,8.1c-0.2-0.1-0.5-0.4-0.8-0.9
			c-0.3-0.5-0.5-0.9-0.8-1.1v-0.5V251.9z M599.9,256.3l4.7-4.3h0.7v3.4l-4.5,4.5c-0.1-0.2-0.3-0.7-0.4-1.5c-0.2-0.7-0.3-1.2-0.4-1.5
			v-0.3V256.3z M612.5,333.8h4.3l-11,11l-3.6,0.7l-0.7-0.7L612.5,333.8z M604.4,262.5c0-0.1,0.1-0.2,0.2-0.3c0-0.2,0.2-0.5,0.5-0.9
			c0.3-0.3,0.6-0.5,0.7-0.5v4.5c-0.2-0.3-0.5-0.8-0.9-1.3C604.6,263.4,604.4,262.9,604.4,262.5z M627.4,333v0.9l-9.5,9.5
			c-0.6,0.6-1.2,0.9-1.8,0.9c-0.6,0-1.3,0-2,0h-2.2l11-11.2H627.4z M637,332.3l-11.2,11h-2.9l11-11H637z"/>
	</g>
	<g>
		<g>
			<path class="st0" d="M100,272.4l0.9-12.6l-53.7,25.5h0c0.9,3.5,1.2,7.2,0.9,10.8l-0.1,0.9L100,272.4z"/>
		</g>
		<g>
			<g>
				<polygon class="st0" points="98.7,291.2 99.6,278.6 48.5,302.9 49.4,314.6 				"/>
			</g>
			<g>
				<path class="st0" d="M51.1,319.8h45.5l1.6-22.4l-16.1,8.9c-1.6,0.9-5.8,2.2-7.5,2.9L51.1,319.8z"/>
			</g>
		</g>
		<g>
			<path class="st0" d="M101.4,253.6l0.9-12.6l-10.6,5.8c-0.5,0.3-1,0.5-1.5,0.7l-44.3,20.2l0.9,11.7l29-12.9
				c0.6-0.3,1.3-0.6,1.9-0.9L101.4,253.6z"/>
		</g>
		<g>
			<path class="st0" d="M100.5,235.9H43.6l0,0c0.4,1.1,0.7,2.3,0.7,3.4l1.2,22.6L100.5,235.9z"/>
		</g>
	</g>
	<g>
		<g>
			<path class="st0" d="M32.4,287.7l-10.4,10.7h0c-0.1,0.7-0.1,1.4,0,2.1l0.3,2l7.7-8.4c0.2-0.2,0.3-0.3,0.5-0.5l2.2-1.9V290
				c0-0.4,0-0.7-0.1-1.1L32.4,287.7z"/>
		</g>
		<g>
			<path class="st0" d="M29.6,252.6L20,262.9l-0.5,2.8l0.1,1.6l6.3-6.9c0.2-0.2,0.4-0.4,0.6-0.6l3.5-3.3l-0.3-3.5L29.6,252.6z"/>
		</g>
		<g>
			<path class="st0" d="M30.3,261.3l-5.5,5.7l-4.9,5l0.2,2.8l0.1,1.3l1.9-2.5c0.3-0.4,0.7-0.9,1.1-1.2l7.4-7h0
				c-0.4-1-0.5-2.1-0.4-3.2L30.3,261.3z"/>
		</g>
		<g>
			<path class="st0" d="M31.7,278.9l-9.7,10c-0.4,0.5-0.7,1.1-0.6,1.7l0.1,0.7l0.2,2.4l5-5.8c0.5-0.5,0.9-1,1.4-1.5l3.9-3.5
				l-0.1-1.2l0,0c-0.3-0.7-0.4-1.5-0.3-2.2L31.7,278.9z"/>
		</g>
		<g>
			<path class="st0" d="M31,270.1L21,280.9l-0.2,1.1l0,0.3l0.2,2.6l9.5-10.4c0.3-0.3,0.4-0.6,0.5-1l0.2-1.9L31,270.1z"/>
		</g>
		<g>
			<path class="st0" d="M17.9,217.3l-8.7,9c-0.4,0.4-0.7,1-0.8,1.6c-0.1,0.6-0.2,1.2-0.9,2.1c-0.6,0.7-0.2,1.8-0.2,2.6l9.3-9.6
				c0.6-0.6,0.9-1.5,0.8-2.4c-0.1-0.7-0.1-1.2,0-1.8C17.4,218.3,17.8,217.6,17.9,217.3z"/>
		</g>
		<g>
			<path class="st0" d="M34.9,318l-0.2-0.6c-0.2-0.6-0.3-1.3-0.2-2l0.1-1.5l-10.4,10.7l0,0c-0.1,1.3,0,2.6,0.3,3.9l0,0.1l0,0
				c0.7-1.2,1.6-2.2,2.6-3.2L34.9,318z"/>
		</g>
		<g>
			<path class="st0" d="M7.2,237.3c0.3,0.7,0.7,1.2,1,1.6c0.3,0.4,0.5,0.7,0.6,0.8c0.1,0.1,0.1,0.1,0.2,0.2l10.6-11
				c-0.2-0.3-0.9-0.6-1.1-1c-0.3-0.7-0.1-1.4-0.3-2l-5.4,5.1c-0.3,0.3-0.5,0.5-0.8,0.8L7.2,237.3z"/>
		</g>
		<g>
			<path class="st0" d="M28.9,243.8l-10.4,10.7l0.2,2.1l0.2,2l3.3-2.8c0.8-0.7,1.6-1.5,2.3-2.3l4.7-5.6l0,0c-0.3-1-0.5-2.1-0.4-3.2
				L28.9,243.8z"/>
		</g>
		<g>
			<path class="st0" d="M22,232.3l-10.2,10.1c0.5,0.3,1.1,0.5,1.6,0.6c0.6,0.2,1.2,0.3,1.7,0.4l9.9-9.8c-0.3-0.2-1.1-0.3-1.3-0.5
				c-0.1-0.1-0.2-0.1-0.3-0.2C22.9,232.7,22.5,232.7,22,232.3z"/>
		</g>
		<g>
			<path class="st0" d="M28.3,235.5l0-0.5l-0.4,0.4l-5.2,5.8c-0.2,0.3-0.5,0.5-0.7,0.8l-4.1,3.8l0.1,0.2c0.4,1.2,0.5,2.5,0.2,3.8
				l0,0l10.4-10.7l-0.2-1.9L28.3,235.5z"/>
		</g>
		<g>
			<path class="st0" d="M46.6,333.9l-0.9-0.3l-0.5,0.2c-0.7,0.3-1.5,0.2-2.1-0.2l0,0l-10.9,11.3h0.5l4.3-0.3L46.6,333.9z"/>
		</g>
		<g>
			<path class="st0" d="M65.7,333.7l-2.1,0.2c-0.7,0.1-1.4,0-2.1-0.2l0,0l-10.9,11.3l1.8-0.2c0.5-0.1,1.1,0,1.6,0.1l0.2,0.1h0.7
				L65.7,333.7z"/>
		</g>
		<g>
			<path class="st0" d="M102.6,333.7l-2.1,0.2c-0.7,0.1-1.4,0-2.1-0.2l0,0l-10.9,11.3l1.8-0.2c0.5-0.1,1.1,0,1.6,0.1l0.2,0.1h0.7
				L102.6,333.7z"/>
		</g>
		<g>
			<path class="st0" d="M84.1,333.7l-1.8-0.3c-0.1,0-0.3,0-0.4,0l-2,0.3l-10.9,11.3h2h2.2c0,0,5.8-5.1,7.8-7.1
				C81.8,337.1,84.1,333.7,84.1,333.7z"/>
		</g>
		<g>
			<path class="st0" d="M74.9,333.7L74.9,333.7c-1-0.2-2-0.3-3-0.1l-1.3,0.1l-8.1,7.7c-0.5,0.5-0.9,1-1.4,1.5l-1.5,2l1.7-0.2
				c0.7-0.1,1.4-0.1,2.1,0.1l0.4,0.1L74.9,333.7z"/>
		</g>
		<g>
			<path class="st0" d="M89,333.7c0,0-6.8,6.7-10.9,11.3c-0.7,0.8,3,1.5,4.2,0c2.6-3,10.9-11.3,10.9-11.3l-1.3,0.2l-1.4-0.2H89z"/>
		</g>
		<g>
			<path class="st0" d="M33.1,296.4l-6.2,6c-0.2,0.2-0.3,0.3-0.5,0.5l-3.7,4.2v0c0.4,0.6,0.7,1.3,0.6,2l-0.2,2l10.1-10.7l0.1-2.3
				L33.1,296.4z"/>
		</g>
		<g>
			<path class="st0" d="M56.5,333.7l-0.2,0.1c-1,0.3-2.1,0.3-3.1,0.1l-0.9-0.2l-10.9,11.3l1.6-0.3l2.6,0.3l4.6-4.7L56.5,333.7z"/>
		</g>
		<g>
			<path class="st0" d="M33.6,305.4l-10.2,10.5l0.2,2.9l0.1,1.2l3.9-3.4c1.2-1,2.3-2.2,3.3-3.4l3.2-3.9l-0.1-1L33.6,305.4z"/>
		</g>
		<g>
			<path class="st0" d="M35.6,326.8l-0.1-1.2l-0.3-1.1l0.1-1.8l-3.9,4.7c-0.2,0.2-0.3,0.4-0.5,0.6l-5.9,5.5l0,0c0.3,1,0.5,2,0.4,3.1
				l-0.1,1L35.6,326.8z"/>
		</g>
		<g>
			<path class="st0" d="M38.2,333.6c-1.1-0.3-1.9-1.1-2.2-2.1l-10.4,10.8l0.1,1.3c0.1,0.8,0.7,1.4,1.5,1.4l0,0l5.2-5.3L38.2,333.6z"
				/>
		</g>
	</g>
	<g>
		<path class="st0" d="M124.1,218.6c-0.8-3.7-3.7-6.6-7.4-7.7l-0.2-0.7l0-0.7c-0.4-12.8-12.9-22.6-27.7-22.6H57.5
			c-14.9,0-27,10.1-27.5,23.1l0,0.7l-0.4,0.1c-4.2,1.1-7.4,4.6-7.9,8.9c-0.6,5.8,3.5,10.8,9.1,11.5l0.8,0.1l7.7,96.4
			c0.1,1.6,1.4,2.8,3,2.8h55.1c1.6,0,7.5-1.2,7.6-2.8l1.3-4.9c1.2-4.3,1.9-8.7,2.3-13.2l6.3-78.3l0.7-0.1
			C121.3,230.2,125.4,224.6,124.1,218.6z M36,209.5c0.4-4.2,2.5-8,5.9-10.9c1.5-0.5,2.8-1.3,4.4-2.2c1.7-1,3-1.8,4-2.3
			c2.3-0.7,4.7-1.1,7.2-1.1h31.4c11.2,0,20.7,7.3,21.5,16.6l0.1,1H35.9L36,209.5z M106.5,260.1l-0.5,6h0l-0.1,1.4
			c-0.5,1.6-1.1,5.3-1.2,8.8c0,1.2,0.1,2.4,0.2,3.6l-0.8,9.6h0l-0.5,6l-2.3,28.9H45l-2.3-28.9l-0.5-6h0l-1.9-23.5h0l-0.5-6
			l-2.3-28.9h71.3L106.5,260.1z M114,225.2l-81.9-1c-2.4,0-4.5-1-4.5-3.4c0-2.4,2-4.4,4.4-4.4l33,2.4c1.1,0.1,2.1,0.1,3.2,0
			l45.8-2.5c2.4,0,4.4,2,4.4,4.4C118.3,223.3,116.4,225.2,114,225.2z"/>
	</g>
</g>
</svg>
